<?xml version="1.0" standalone="no"?>
<!DOCTYPE svg PUBLIC "-//W3C//DTD SVG 20010904//EN"
 "http://www.w3.org/TR/2001/REC-SVG-20010904/DTD/svg10.dtd">
<svg version="1.0" xmlns="http://www.w3.org/2000/svg"
 width="1024.000000pt" height="1024.000000pt" viewBox="-512 -512 1024 1024"
 preserveAspectRatio="xMidYMid meet">
  <path d="M388.349 207.356l.857.415.974-.415-.583-1.559.308-.449.36.673.592-.562.209-1.072-.402-.915-.346-.631.519-.766 2.097-1.169.493-1.162.729.256.246-.691-.595-.995 1.291-.722-.275-.864-1.561.136-1.45-.519-.089-1.202 1.168-.064.975-1.44-1.794-.29-.045-.384-.722-.105-.108.171-1.141-.348-.151-1.493-1.059-.121-.297 1.328-1.725.106-3.598.93-3.037 1.04-.876-.19-.747.86-1.198.007-.812.794-1.037 1.235.487 4.717-.126 2.064 3.738 1.501-2.655 4.748.525.453 1.215.574.471.795 1.578-.207 1.976 1.296 1.32-.109.851-1.239 1.355-2.709 1.616-.122.479-1.585z" transform="scale(46.43778193732766) translate(-385.30853271484375 -202.09452056884766)"></path>
</svg>
