<?xml version="1.0" standalone="no"?>
<!DOCTYPE svg PUBLIC "-//W3C//DTD SVG 20010904//EN"
 "http://www.w3.org/TR/2001/REC-SVG-20010904/DTD/svg10.dtd">
<svg version="1.0" xmlns="http://www.w3.org/2000/svg"
 width="1024.000000pt" height="1024.000000pt" viewBox="-512 -512 1024 1024"
 preserveAspectRatio="xMidYMid meet">
  <path d="M435.529 209.098l-3.137 20.996-12.269-1.719-.882 7.194-.448 4.755-.744 4.446-.323 3.259 1.821-.123.939 2.075h.944l.65-.034.596-1.37 1.345.758.633.709 1.164 1.007 1.14-.552 1.376.208 1.261.663 2.017-.136.941.505 1.635.273.148-1.143h1.075l-.206-1.259.869-5.205 1.636-.927.383-1.59-1.514-.44.317-2.601 1.877-.392 1.273-7.083 1.051-.375.311-.803-1.201.091.196-1.351 2.417.145.247-1.196 1.06 1.298.892.204.367-3.629-1.078-3.589 1.387.113-1.025-1.323.615-1.057-1.129-1.634.343-1.105-.046-1.351-1.372-.974.804-1.577-.56-1.717-3.48-1.814-4.316-.63z" transform="scale(23.86167602755215) translate(-431.7105407714844 -230.5550079345703)"></path>
</svg>
