<?xml version="1.0" standalone="no"?>
<!DOCTYPE svg PUBLIC "-//W3C//DTD SVG 20010904//EN"
 "http://www.w3.org/TR/2001/REC-SVG-20010904/DTD/svg10.dtd">
<svg version="1.0" xmlns="http://www.w3.org/2000/svg"
 width="1024.000000pt" height="1024.000000pt" viewBox="-512 -512 1024 1024"
 preserveAspectRatio="xMidYMid meet">
  <path d="M307.959 228.294l2.795.424-.038.457 2.247.215.447.413.706.118.099.62.031.69.504.602.301.596.077.757.132.512.712.234.413.175.127.366-.129.361.035.495.085.667.592.327.322.091.513.344.996.961-.534.64.398.425.066.425-.176.492-2.136.782-4.289 2.172-.357 2.49-6.411-.695 1.585-10.469.887-5.687z" transform="scale(60.767914432691896) translate(-312.20654296875 -236.71947479248047)"></path>
</svg>
