<?xml version="1.0" standalone="no"?>
<!DOCTYPE svg PUBLIC "-//W3C//DTD SVG 20010904//EN"
 "http://www.w3.org/TR/2001/REC-SVG-20010904/DTD/svg10.dtd">
<svg version="1.0" xmlns="http://www.w3.org/2000/svg"
 width="1024.000000pt" height="1024.000000pt" viewBox="-512 -512 1024 1024"
 preserveAspectRatio="xMidYMid meet">
  <path d="M420.158 396.924l.957.143.576.454 4.67.642.358-2.192 1.737.201 1.688-.119 2.145.162.487-1.065 1.468.612 1.102 2.401 2.766-.032 1.967.952 2.726-.865 2.029.59.59-2.187 1.669.179 2.868.337.85-1.747.499 2.275.998.144-.389 2.359-.004 1.821-.733 2.515-.066 3.127 1.606 2.397-.769 1.914-1.156 3.787-.857 4.783-4.444 16.125-3.739 1.168-27.652-9.184 1.39-2.121.937-6.478L419.12 404l1.038-7.076z" transform="scale(24.006564981945584) translate(-433.4134063720703 -416.47752380371094)"></path>
</svg>
