<?xml version="1.0" standalone="no"?>
<!DOCTYPE svg PUBLIC "-//W3C//DTD SVG 20010904//EN"
 "http://www.w3.org/TR/2001/REC-SVG-20010904/DTD/svg10.dtd">
<svg version="1.0" xmlns="http://www.w3.org/2000/svg"
 width="1024.000000pt" height="1024.000000pt" viewBox="-512 -512 1024 1024"
 preserveAspectRatio="xMidYMid meet">
  <path d="M363.898 250.706l19.854 3.121 3.365-.687 2.24.336.636.007-.008-.682 1.12-.964.873.084.387.704-.892 4.932-.408.12-.271.472.211.497-.281.739-.633.079-.487.346-.195.553-.167 1.48-5.268-.757-.062-.591-.229-.033-.325.4-.878-.126-.188.44-1.387-.031-.021 2.799h-.594l-.046 1.116-1.379-.156.246-1.664-.435-.147-.154.762-.348.063-1 .737-7.662-1.09.996-6.893-7.397-1.022.787-4.944z" transform="scale(35.003835830222) translate(-377.7379913330078 -257.8830108642578)"></path>
</svg>
