<?xml version="1.0" standalone="no"?>
<!DOCTYPE svg PUBLIC "-//W3C//DTD SVG 20010904//EN"
 "http://www.w3.org/TR/2001/REC-SVG-20010904/DTD/svg10.dtd">
<svg version="1.0" xmlns="http://www.w3.org/2000/svg"
 width="1024.000000pt" height="1024.000000pt" viewBox="-512 -512 1024 1024"
 preserveAspectRatio="xMidYMid meet">
  <path d="M323.054 244.755l1.815-.562.884-1.344 1.394-.979.467-1.107-.466-1.41-1.248-.738-.854-.567-.304-.516 1.459-.397 1.677.012 1.323.203 1.562-.368 1.061-1.702.158-1.141 1.303-9.347.651.303.325-1.889-.707-.2.145-1.012 6.609.84-1.552 10.305-3.6.145-.389 3.127.796-.194-.49 2.98-2.549-.561-1.468-.204-.332.425 1.406 1.242 2.812 3.553-.199.66-3.221-.622-.302 1.15 1.682 1.303.846.229-.149 1.264 2.132.979.133.549-1.097.456-.467.636 1.464 1.171.262 1.006-1.396.517-1.902-.602-.949-2.233-.974-.563-1.525-.477-1.09 1.097-1.808.478-.361-1.385 2.152-1.78-.158-.592-1.423.189-1.423 1.462-.865-.181.034-1.65-.613-.185-.672.566-.383-.983.384-1.356z" transform="scale(33.07919967782848) translate(-331.48907470703125 -237.47200775146484)"></path>
</svg>
