<?xml version="1.0" standalone="no"?>
<!DOCTYPE svg PUBLIC "-//W3C//DTD SVG 20010904//EN"
 "http://www.w3.org/TR/2001/REC-SVG-20010904/DTD/svg10.dtd">
<svg version="1.0" xmlns="http://www.w3.org/2000/svg"
 width="1024.000000pt" height="1024.000000pt" viewBox="-512 -512 1024 1024"
 preserveAspectRatio="xMidYMid meet">
  <path fill-rule="evenodd" d="M25.616 282.982l1.535.485 10.527 3.828 20.097 16.269 6.699 8.613-.957 4.785-2.871-.957h-1.914l-.957.957v1.914l-2.871 3.828-3.828 1.914-2.745 4.209 25.456 2.585 1.236-8.967 1.411-2.177 4.99.237-1.22-3.21 1.401-3.276 4.372.421 2.362-2.87-.779-4.731.779-1.859-3.054.986-.961-2.028-5.164-.811-1.75 1.238-4.219-5.002-3.935-1.409.386-4.014-5.171-6.837-1.49-3.622-3.677-1.557.639-3.316-4.819-2.545.69-3.508-5.031-2.888-4.357.471-1.349-7.098-2.892 3.348-2.608-.164-.917 3.079-13.044 13.679z" transform="scale(14.97687572308) translate(-56.97750282287598 -297.2259826660156)"></path>
</svg>
