<?xml version="1.0" standalone="no"?>
<!DOCTYPE svg PUBLIC "-//W3C//DTD SVG 20010904//EN"
 "http://www.w3.org/TR/2001/REC-SVG-20010904/DTD/svg10.dtd">
<svg version="1.0" xmlns="http://www.w3.org/2000/svg"
 width="1024.000000pt" height="1024.000000pt" viewBox="-512 -512 1024 1024"
 preserveAspectRatio="xMidYMid meet">
  <path d="M612.36 481.873l13.405.323-1.354 5.031-.797 3.833 1.241 5.032 3.398 4.241-3.354 4.288 1.42 6.534 1.17-1.38 6.405.627.768-.552 5.336.868 3.651 2.939.723-4.079 4.05-1.17 11.683 1.788 2.303-.799 4.687.682.086.981 4.328.997.489 1.293 12.472-3.541 3.527-20.695-7.212-1.117 1.244-7.47-4.976-.795 1.382-7.792-7.13-1.083L672.55 464l3.659-.653 2.216-12.762-2.588-.433 1.39-7.685 4.875.792-1.328-4.916-5.906.658-4.726-1.071-1.14 6.273-1.608.141-.586 1.093-5.92-.955-.744-1.876-3.476-1.874-1.411-4.537-4.888-2.776.946-4.953-3.713-.482.84-3.812-3.775-.515-4.113.448-5.895 5.272-3.395-3.196-5.805-.424-.325 2.522-3.407 1.391.751 1.865-2.176 1.148-3.774-3.295-2.551-.804-1.915 2.679 2.427 2.5-.528 3.04-2.568 1.242 2.205 4.535.073 2.985-1.125 6.289 5.97 1.052.027 3.822-2.14 1.694-3.437 20.076-.606 3.375z" transform="scale(11.377766203715478) translate(-649.6949462890625 -468.65699768066406)"></path>
</svg>
