<?xml version="1.0" standalone="no"?>
<!DOCTYPE svg PUBLIC "-//W3C//DTD SVG 20010904//EN"
 "http://www.w3.org/TR/2001/REC-SVG-20010904/DTD/svg10.dtd">
<svg version="1.0" xmlns="http://www.w3.org/2000/svg"
 width="1024.000000pt" height="1024.000000pt" viewBox="-512 -512 1024 1024"
 preserveAspectRatio="xMidYMid meet">
  <path d="M452.915 319.172l.21-1.597-1.393-.984-.201-.875-1.172-1.833.942-2.651.007-2.086.653-2.369.364-2.055 1.134-2.332 1.538-.511.562-2.282 1.098-1.862 4.039.474 19.248 7.482 5.86-13.504 2.501.951.181.626.9.526 1.035-.311.947.53-.148.89 1.154.932-1.154 3.18.929 1.765-.929 3.446-1.308 1.849-.767.711v1.992l-.786 1.012.107 2.232-.873 1.416.825.891v1.305l-3.884.619v-.571l-.51-.048-.12.773-.825.147-.002 3.719-4.657.029.037.861-1.548-.104-2.762.318-4.078-.309-2.556-.015-1.464.677v-.957l-12.358-.035-.776-2.062z" transform="scale(24.37227491490805) translate(-471.3664855957031 -307.20648193359375)"></path>
</svg>
