<?xml version="1.0" standalone="no"?>
<!DOCTYPE svg PUBLIC "-//W3C//DTD SVG 20010904//EN"
 "http://www.w3.org/TR/2001/REC-SVG-20010904/DTD/svg10.dtd">
<svg version="1.0" xmlns="http://www.w3.org/2000/svg"
 width="1024.000000pt" height="1024.000000pt" viewBox="-512 -512 1024 1024"
 preserveAspectRatio="xMidYMid meet">
  <path d="M528.68 304.088l-3.688-2.216 1.668-2.52 1.338-.382-5.267-6.277 1.376-2.062 2.905-.08 2.197-.866 6.348-4.13-6.413-.579-1.029-2.044-3.902-2.352-5.077-3.045-4.198-.592-.743 14.93-5.069-.846-.232 2.409-6.544-.718-1.233 4.76-6.982-1.496-1.761.349-1.154 3.18.929 1.765-.929 3.446 2.913 1.028 3.411.101 2.642-1.763 2.871 1.251 3.622-.427 3.242 1.109 1.306 2.566 2.311 1.215 3.557-.206-.27-2.253 2.477-2.189 3.022 1.269.322-2.26 4.782 1.165 1.252-1.24z" transform="scale(23.095847151154228) translate(-513.3885803222656 -293.3725280761719)"></path>
</svg>
