<?xml version="1.0" standalone="no"?>
<!DOCTYPE svg PUBLIC "-//W3C//DTD SVG 20010904//EN"
 "http://www.w3.org/TR/2001/REC-SVG-20010904/DTD/svg10.dtd">
<svg version="1.0" xmlns="http://www.w3.org/2000/svg"
 width="1024.000000pt" height="1024.000000pt" viewBox="-512 -512 1024 1024"
 preserveAspectRatio="xMidYMid meet">
  <path d="M417.754 135.864l.365-2.184-1.405-.88-1.505-.301.281-1.679 3.049.33.233-1.436 1.155-.02.329 1.635 2.879.388.214-1.446-.536-.073.274-1.704-.73-.666-.096-1.24 1.632.22 4.405.33-.49-1.152-.414-1.036.361-1.781 2.069-.313 1.392-.579-1.203-1.796 1.492-.916-1.101-.961 1.538-5.193 3.325.179-1.68 4.672.77.973 2.254.047-.158.996 2.174.19-.455 5.052 2.016.309-.533 3.795-2.609 1.423-2.689 3.748 1.582 2.514 1.423.55v4.241l1.897.332 1.661 4.033 1.225 1.233 2.214.285-1.463 9.962-.593 1.376-.366 3.075-9.788-1.308-14.207-2.331.513-3.347-4.133.451-2.791 1.3-3.186-1.672-4.383-1.683 2.201-2.232.454-3.066 3.11.407.772-4.342.507.067.811-5.795 2.523.344.494-3.662 2.92.337z" transform="scale(20.904348449085088) translate(-424.1604919433594 -137.90349960327148)"></path>
</svg>
