<?xml version="1.0" standalone="no"?>
<!DOCTYPE svg PUBLIC "-//W3C//DTD SVG 20010904//EN"
 "http://www.w3.org/TR/2001/REC-SVG-20010904/DTD/svg10.dtd">
<svg version="1.0" xmlns="http://www.w3.org/2000/svg"
 width="1024.000000pt" height="1024.000000pt" viewBox="-512 -512 1024 1024"
 preserveAspectRatio="xMidYMid meet">
  <path d="M361.677 264.089l.344-1.586 3.545.429-.115-1.3.515.196.274.829.763-1.12.781-.007-.152.984.739.328.183-1.198.717-.012-.346 1.853.587.08 7.662 1.09 1-.737.348-.063.154-.762.435.147-.246 1.664 1.379.156-.027.702.559.843-.725 2.795.849 1.051-.344 1.552-.241-.035-.822 5.587-1.629-.27-.014-.841-.693-.1-.508 1.062-6.227-.789 1.026-2.206-1.476-1.125.066-2.722-2.066-.522-1.14-2.487-2.167 1.084-.215-1.995-.626-.181-1.02.683-1.409-.215-.536.255.818-3.097z" transform="scale(51.09529269700306) translate(-370.87950134277344 -269.54254150390625)"></path>
</svg>
