<?xml version="1.0" standalone="no"?>
<!DOCTYPE svg PUBLIC "-//W3C//DTD SVG 20010904//EN"
 "http://www.w3.org/TR/2001/REC-SVG-20010904/DTD/svg10.dtd">
<svg version="1.0" xmlns="http://www.w3.org/2000/svg"
 width="1024.000000pt" height="1024.000000pt" viewBox="-512 -512 1024 1024"
 preserveAspectRatio="xMidYMid meet">
  <path d="M261.556 205.331l-1.363-2.589 16.073 2.093.473.064.368.635-.27.517-.609-.145-.619.253-1.164-.147-.677.419-.078.954.562.213.133.509-.355.006-.217.588-.563.272-.455 1.638-.119.432 1.107.821 1.195.158v.552l.721-.145 1.467-.404.81.894-.683.872.613 1.443-.63.505-.11 1.125.22.584-1.161-.292.053-.369-10.676-1.447.028 1.28.269 1.78-1.136.323-2.626-.429-1.944.148-1.029-.128.436-3.743-11.992-1.652.641-4.069 1.365-9.295 11.942 5.776z" transform="scale(33.71975998319762) translate(-262.7920684814453 -209.13894653320312)"></path>
</svg>
