<?xml version="1.0" standalone="no"?>
<!DOCTYPE svg PUBLIC "-//W3C//DTD SVG 20010904//EN"
 "http://www.w3.org/TR/2001/REC-SVG-20010904/DTD/svg10.dtd">
<svg version="1.0" xmlns="http://www.w3.org/2000/svg"
 width="1024.000000pt" height="1024.000000pt" viewBox="-512 -512 1024 1024"
 preserveAspectRatio="xMidYMid meet">
  <path d="M396.309 185.877l-.315.344.656.546.416.597-.67.227-.957-.841-.693 1.042-1.121.445.509.853.559.823.685-.038.18.461-.792.387-1.236-.249.022.907.614.743.313.427-.613 1.088-1.794-.29-.045-.384-.722-.105-.108.171-1.141-.348-.151-1.493-1.059-.121-.297 1.328-1.725.106-3.598.93-3.037 1.04-.876-.19-.747.86-1.198.007-1.849 2.029-.947.65.197-1.651 1.685-11.056 9.554 1.313.042-1.038-.946-1.107 11.205 1.587z" transform="scale(45.523274855070596) translate(-385.81898498535156 -191.05951690673828)"></path>
</svg>
