<?xml version="1.0" standalone="no"?>
<!DOCTYPE svg PUBLIC "-//W3C//DTD SVG 20010904//EN"
 "http://www.w3.org/TR/2001/REC-SVG-20010904/DTD/svg10.dtd">
<svg version="1.0" xmlns="http://www.w3.org/2000/svg"
 width="1024.000000pt" height="1024.000000pt" viewBox="-512 -512 1024 1024"
 preserveAspectRatio="xMidYMid meet">
  <path d="M269.519 140.223l2.285.31-1.485 8.906 9.589 1.419-.284 1.54.992-.467.762-4.241 6.774.955 1.907 4.746 1.285 1.891.716 2.777.444 2.837.407 2.023-4.99.249-6.229.459-4.262.699-5.751.51-6.386.036.38-2.871h-.528l1.211-4.74-1.957-.448-1.829-1.703-6.711-1.294 2.702-2.6 4.058-1.649 2.819-3.523 1.737-5.16 2.344-.661z" transform="scale(27.636833261951043) translate(-274.3850402832031 -152.54750061035156)"></path>
</svg>
