<?xml version="1.0" standalone="no"?>
<!DOCTYPE svg PUBLIC "-//W3C//DTD SVG 20010904//EN"
 "http://www.w3.org/TR/2001/REC-SVG-20010904/DTD/svg10.dtd">
<svg version="1.0" xmlns="http://www.w3.org/2000/svg"
 width="1024.000000pt" height="1024.000000pt" viewBox="-512 -512 1024 1024"
 preserveAspectRatio="xMidYMid meet">
  <path d="M330.828 380.477l1.146.311 1.295.154 1.291-.292.887.292 1.305-.352.768.625 3.429.407.231-1.758 1.779.258.306-2.251h-.463l.236-2.466h-.618l-.015-.863-6.155-.789-.174-1.401.565-1.184.026-1.126.004-1.621-2.688-.35-2.805-.017-.277-.857-5.613-.996v.427l-3.677-.427-1.384 1.459h-1.409l.322 1.281 1.75.706 4.381 5.243 3.465 5.431 2.092.156z" transform="scale(41.88644094667081) translate(-331.0414276123047 -373.9114990234375)"></path>
</svg>
