<?xml version="1.0" standalone="no"?>
<!DOCTYPE svg PUBLIC "-//W3C//DTD SVG 20010904//EN"
 "http://www.w3.org/TR/2001/REC-SVG-20010904/DTD/svg10.dtd">
<svg version="1.0" xmlns="http://www.w3.org/2000/svg"
 width="1024.000000pt" height="1024.000000pt" viewBox="-512 -512 1024 1024"
 preserveAspectRatio="xMidYMid meet">
  <path d="M452.722 410.028l-1.606-2.397.066-3.127.733-2.515.004-1.821.389-2.359 1.525-1.363.09-2.663-1.754-2.541.689-2.619.754-3.266 2.355.357 23.109 3.244.407 2.284.445.988-1.101 2.6-.619 1.933-.513 1.431-.041 1.529-1.085.948-.206 1.508-1.495 1.58-.243 1.461.98 1.193-.792 5.543-1.471-.175.406 1.022-5.031-2.66-.181 1.113-3.216-.389-.564 3.348-10.353-1.413-2.45-.86.769-1.914z" transform="scale(35.48412995522505) translate(-465.5220184326172 -399.7859802246094)"></path>
</svg>
