<?xml version="1.0" standalone="no"?>
<!DOCTYPE svg PUBLIC "-//W3C//DTD SVG 20010904//EN"
 "http://www.w3.org/TR/2001/REC-SVG-20010904/DTD/svg10.dtd">
<svg version="1.0" xmlns="http://www.w3.org/2000/svg"
 width="1024.000000pt" height="1024.000000pt" viewBox="-512 -512 1024 1024"
 preserveAspectRatio="xMidYMid meet">
  <path d="M575.143 472.34l.835-2.932 2.026-1.511-.406-2.243-2.447-1.878-1.11-4.208-2.464.475-3.019-.994-4.735-5.11 1.064-2.667 3.051-.73-.302-4.108 1.233-4.845 3.709-5.479 3.041-4.387.833-3.499 1.223-2.592 3.054-3.024-9.437-3.126-.505-2.721-6.075-1.695-.306 1.616-4.974-.338-2.043 2.262-6.758-.128-4.887.659-1.47-.715-.691-2.423-4.848-.751-.804 2.699-1.623 2.029-.688 4.427-1.923 2.894-1.221 1.337 5.754 5.67.43 1.356 5.735 7.191-5.559.054-.365 2.772-1.935 2.604-.916 3.079 1.795 2.752.485 3.232 2.517 1.044 1.676 4.641.621 3.032 3.106 1.807 1.407 3.571 28.658 4.221-.742-3.32z" transform="scale(16.89934758499677) translate(-556.6026000976562 -445.363037109375)"></path>
</svg>
