<?xml version="1.0" standalone="no"?>
<!DOCTYPE svg PUBLIC "-//W3C//DTD SVG 20010904//EN"
 "http://www.w3.org/TR/2001/REC-SVG-20010904/DTD/svg10.dtd">
<svg version="1.0" xmlns="http://www.w3.org/2000/svg"
 width="1024.000000pt" height="1024.000000pt" viewBox="-512 -512 1024 1024"
 preserveAspectRatio="xMidYMid meet">
  <path d="M362.866 62.455l-1.183 8.213 3.337 3.897-.33 4.762-.429 2.804-3.315 1.178-2.715-1.175-1.159 2.665.714 2.796-1.082 3.58 1.574 2.311-2.397 3.738 19.53 2.388 13.954 2.186 6.152.792-.831-1.879-1.768-2.513-1.585-6.036 1.487-1.429.535-3.418 2.236-3.769-1.066-2.36 3.542-.738.836-4.137-1.409-3.529.823-1.726 2.563-1.252.127-2.377-38.141-4.972z" transform="scale(22.692014345139512) translate(-378.4440155029297 -82.52249908447266)"></path>
</svg>
