<?xml version="1.0" standalone="no"?>
<!DOCTYPE svg PUBLIC "-//W3C//DTD SVG 20010904//EN"
 "http://www.w3.org/TR/2001/REC-SVG-20010904/DTD/svg10.dtd">
<svg version="1.0" xmlns="http://www.w3.org/2000/svg"
 width="1024.000000pt" height="1024.000000pt" viewBox="-512 -512 1024 1024"
 preserveAspectRatio="xMidYMid meet">
  <path d="M294.148 51.702l-3.481-4.36.849-3.918 3.38-1.701-9.662-1.23-3.334 23.848-30.549-4.406-1.61 9.796 1.485.212-.372 3.021-1.608-.242-1.133 8.911-7.145-.912 2.693 12.22 5.698.941-.689 3.399 6.204.949.166-2.055 8.074.739 18.781 2.921-1.001 5.821 7.758 1.067 3.563-.508.779-1.146-1.05-1.539-.474-2.652-2.03-2.206-1.352-1.748-1.522-2.512 2.922.102.567-2.631.066-4.375 1.425-2.531 1.624-5.213.097-5.032 2.915-3.23 1.966-4.126-.959-5.131 1.352-5.058-1.016-2.872-3.377-2.613z" transform="scale(15.461268762455505) translate(-269.7544937133789 -73.60800552368164)"></path>
</svg>
