<?xml version="1.0" standalone="no"?>
<!DOCTYPE svg PUBLIC "-//W3C//DTD SVG 20010904//EN"
 "http://www.w3.org/TR/2001/REC-SVG-20010904/DTD/svg10.dtd">
<svg version="1.0" xmlns="http://www.w3.org/2000/svg"
 width="1024.000000pt" height="1024.000000pt" viewBox="-512 -512 1024 1024"
 preserveAspectRatio="xMidYMid meet">
  <path d="M580.604 428.419l.412 1.192 3.709 2.509v1.54l3.132-.394 1.718-6.782-2.16-.339 2.16-2.369 3.936-1.541 1.492 1.46 2.723 1.777-4.885 7.207-1.263 1.46-.667 4.986-5.242 6.371-3.397 18.424-7.121-.144-1.11-4.208-2.464.475-3.019-.994-4.735-5.11 1.064-2.667 3.051-.73-.302-4.108 1.233-4.845 3.709-5.479 3.041-4.387.833-3.499 1.223-2.592 2.929 2.787z" transform="scale(24.565192754554758) translate(-580.7745666503906 -443.0775146484375)"></path>
</svg>
