<?xml version="1.0" standalone="no"?>
<!DOCTYPE svg PUBLIC "-//W3C//DTD SVG 20010904//EN"
 "http://www.w3.org/TR/2001/REC-SVG-20010904/DTD/svg10.dtd">
<svg version="1.0" xmlns="http://www.w3.org/2000/svg"
 width="1024.000000pt" height="1024.000000pt" viewBox="-512 -512 1024 1024"
 preserveAspectRatio="xMidYMid meet">
  <path d="M467.449 278.624l-.912.201.043-.817.463-.102-.201-1.722-1.509.002.033-16.573 4.839-3.419 6.322-2.33 5.331-6.57 6.343-5.223 1.162-7.734 4.594.638 5.603.92-.296 1.866-1.227.11-1.137.762-1.252 1.403-.685 1.86.155.704-1.581.911.42 2.291.56.881-2.528 3.105-1.23.07-.335 1.806-2.269 1.695-1.48 1.702-1.795.489-.574 1.791-1.754 1-.621 1.838 2.012 1.443-.097 2.708-.271 2.426.273 1.832-2.408-.058-.075 2.802-3.108.37-.005-.995h-1.324v1.01l-2.03.146.053 1.861 1.12.133.001.568-1.03.193.146 1.213-.52.352-.001.421 1.021-.001-1.021 4.962-2.53-.773-4.621.052-.067-2.22z" transform="scale(21.68207549211972) translate(-482.4465026855469 -257.9509963989258)"></path>
</svg>
