<?xml version="1.0" standalone="no"?>
<!DOCTYPE svg PUBLIC "-//W3C//DTD SVG 20010904//EN"
 "http://www.w3.org/TR/2001/REC-SVG-20010904/DTD/svg10.dtd">
<svg version="1.0" xmlns="http://www.w3.org/2000/svg"
 width="1024.000000pt" height="1024.000000pt" viewBox="-512 -512 1024 1024"
 preserveAspectRatio="xMidYMid meet">
  <path d="M398.166 189.021l2.708-.967 2.221.593 1.323 1.086 1.511 1.482 3.16 2.394 3.356.38.373-2.178-.191-2.327.982-2.231.106-2.399-.918-2.976-1.119-1.702-.712-2.933-1.457.081-.855.477-1.814-.856-2.828-.358-1.347.452-.87 1.247-1.336.356-.897.463-.25.207-.827-.914-.207.373-1.442 1.067.448.722-.367.883.887.722-.021.633-1.377-.022.767 1.898-.864 1.203-.315.344.656.546.416.597-.67.227 1.77 1.43z" transform="scale(57.78452233752725) translate(-404.85443115234375 -185.28800201416016)"></path>
</svg>
