<?xml version="1.0" standalone="no"?>
<!DOCTYPE svg PUBLIC "-//W3C//DTD SVG 20010904//EN"
 "http://www.w3.org/TR/2001/REC-SVG-20010904/DTD/svg10.dtd">
<svg version="1.0" xmlns="http://www.w3.org/2000/svg"
 width="1024.000000pt" height="1024.000000pt" viewBox="-512 -512 1024 1024"
 preserveAspectRatio="xMidYMid meet">
  <path d="M289.498 186.206l-.451 1.991.381 1.864-.868 1.36.846 2.294-1.399 1.217.553.778-.553 2.486-3.192-.404-5.052-.48-3.803-.922-.879.403-1.109-.802-.551 1.647-.988-1.336-1.045-.407-.29-1.07.761-.778-.256-.643-.679-.724-.847.367-.29-.885-.737-1.351-1.257-1.162 1.908-.559-.76-2.481 1.961-.307 1.523.321 1.715.164.127-1.219v-1.409l.317-1.103-.34-.973 3.033.404.1-1.167 1.651.229.106-.844.49-.151.399.683 3.695.322 2.636.027 2.183.916.262-.553.897.102.019 2.006-.217 2.149z" transform="scale(46.711137777567416) translate(-278.7539825439453 -189.37498474121094)"></path>
</svg>
