<?xml version="1.0" standalone="no"?>
<!DOCTYPE svg PUBLIC "-//W3C//DTD SVG 20010904//EN"
 "http://www.w3.org/TR/2001/REC-SVG-20010904/DTD/svg10.dtd">
<svg version="1.0" xmlns="http://www.w3.org/2000/svg"
 width="1024.000000pt" height="1024.000000pt" viewBox="-512 -512 1024 1024"
 preserveAspectRatio="xMidYMid meet">
  <path d="M295.526 266.473l-5.247 3.337-3.314.363-5.929-.213-4.057-.712-.949-.778.666-.677 4.404.886 3.232-1.565-.682-1.527-1.453.708-.335-.708 1.46-.715-.858-2.099-5.1 2.814-3.38.886-.533-.886 1.838-1.27-.377-.933 2.008-1.269 1.028-2.105.441-2.277 1.508.164 2.33 1.22 1.255 1.035 2.942-1.189 1.011 1.31 1.811.412 3.367-1.139 2.913 6.927z" transform="scale(46.38722618907729) translate(-284.4884796142578 -263.9529571533203)"></path>
</svg>
