<?xml version="1.0" standalone="no"?>
<!DOCTYPE svg PUBLIC "-//W3C//DTD SVG 20010904//EN"
 "http://www.w3.org/TR/2001/REC-SVG-20010904/DTD/svg10.dtd">
<svg version="1.0" xmlns="http://www.w3.org/2000/svg"
 width="1024.000000pt" height="1024.000000pt" viewBox="-512 -512 1024 1024"
 preserveAspectRatio="xMidYMid meet">
  <path d="M277.277 182.487l.1-1.167 1.651.229.106-.844.49-.151 1.014-9.574 13.871 1.989-.726-7.4-.872-2.65-4.99.249-6.229.459-4.262.699-5.751.51-6.386.036-2.348-.286-3.642-.122h-1.737l-1.917 1-1.241 1.326 2.825.358.027 1.627.306 1.12-.364 1.656-.071 1.533-1.379.648-.11 1.1-.5.351-.654.061-.627.552-.426 1.082h.576l1.43 2.463 5.058.645.245-.382 5.601.827-.225-1.28 1.622-.454.738 2.467 2.13-.468-.403-1.487.436-.108 1.909 1.122.431.065-.244 1.567 1.505.228 3.033.404z" transform="scale(24.93060066638755) translate(-273.9719924926758 -172.70301055908203)"></path>
</svg>
