<?xml version="1.0" standalone="no"?>
<!DOCTYPE svg PUBLIC "-//W3C//DTD SVG 20010904//EN"
 "http://www.w3.org/TR/2001/REC-SVG-20010904/DTD/svg10.dtd">
<svg version="1.0" xmlns="http://www.w3.org/2000/svg"
 width="1024.000000pt" height="1024.000000pt" viewBox="-512 -512 1024 1024"
 preserveAspectRatio="xMidYMid meet">
  <path d="M265.048 247.311l-1.592-1.106-2.582-1.028-1.724-.573-1.742-1.125-.72-.826-.249-.851.156-.665-8.488-1.217.049-.307-4.557-.543-.555 3.566-.878 5.705-.985-.13-.425 2.813 3.28.618h2.76l.913.718 5.229.917-.21 1.386.848.124.004.465 1.254.425-1.337 2.598-.234.73 2.171.506-.6 2.42 3.557.396.522-4.689 1.087-3.962 1.601-3.265 1.265-.672 1.955.442 1.049-1.675-.822-1.195z" transform="scale(40.77404804261814) translate(-253.31298828125 -250.69851684570312)"></path>
</svg>
