<?xml version="1.0" standalone="no"?>
<!DOCTYPE svg PUBLIC "-//W3C//DTD SVG 20010904//EN"
 "http://www.w3.org/TR/2001/REC-SVG-20010904/DTD/svg10.dtd">
<svg version="1.0" xmlns="http://www.w3.org/2000/svg"
 width="1024.000000pt" height="1024.000000pt" viewBox="-512 -512 1024 1024"
 preserveAspectRatio="xMidYMid meet">
  <path fill-rule="evenodd" d="M247.65 296.765l-18.041-2.257-6.576-2.071.126 2.792 3.745 1.406 2.463-.047 3.328.998 2.478 1.779 1.038-.657 1.229 1.085-.095 1.657 1.327 1.303 1.483 2.501.978-.213.919-1.886 1.794.456.505 1.355 2.931.282 1.009-1.051 2.158.854 1.712 2.087 4.75 1.675 2.988-1.576 1.787.075.498-2.022 3.026-2.379 1.96-.989-1.517-.843-.652-1.375-1.423 1.375-2.106-1.553-2.876.641-1.546-1.525-.221-3.083-.942-1.813-2.082-2.41-2.547-.133-4.636-1.064-.745 1.346 1.773 5.28z" transform="scale(23.2004928502829) translate(-245.1014862060547 -299.4760284423828)"></path>
</svg>
