<?xml version="1.0" standalone="no"?>
<!DOCTYPE svg PUBLIC "-//W3C//DTD SVG 20010904//EN"
 "http://www.w3.org/TR/2001/REC-SVG-20010904/DTD/svg10.dtd">
<svg version="1.0" xmlns="http://www.w3.org/2000/svg"
 width="1024.000000pt" height="1024.000000pt" viewBox="-512 -512 1024 1024"
 preserveAspectRatio="xMidYMid meet">
  <path d="M480.818 329.537l2.258-.384.001-8.384.002-3.719.825-.147.12-.773.51.048v.571l3.884-.619v-1.305l-.825-.891.873-1.416-.107-2.232.786-1.012v-1.992l.767-.711 1.308-1.849 2.913 1.028.151 2.914 1.845 1.955-1.575 5.052 1.067 3.645-.624 4.915 1.756 4.655 1.992 3.65-9.156 2.243-2.61-.582-5.709.282-.452-4.942z" transform="scale(34.068595239352305) translate(-489.78150939941406 -319.75054931640625)"></path>
</svg>
