<?xml version="1.0" standalone="no"?>
<!DOCTYPE svg PUBLIC "-//W3C//DTD SVG 20010904//EN"
 "http://www.w3.org/TR/2001/REC-SVG-20010904/DTD/svg10.dtd">
<svg version="1.0" xmlns="http://www.w3.org/2000/svg"
 width="1024.000000pt" height="1024.000000pt" viewBox="-512 -512 1024 1024"
 preserveAspectRatio="xMidYMid meet">
  <path d="M280.226 227.8l.2-.908-.56-.194-1.231.012-.081-.914.842-.444.709-.891v-1.729l.32-2.211v-1.794l-.857-.676-1.1-.073-.766.316-.538-1.426.11-1.125.63-.5-.613-1.443.683-.872s-.742-.846-.81-.894a12.183 12.183 0 00-1.467.4l-.721.145v-.552l-1.195-.158-1.107-.821.119-.432 18.08 2.547-1.793 1.379-.323 1.952-.435 2.037-.02 2.867-.757 3.4 1.134.162-.895 6.337-6.781-.983-.172.941v1.079l-1.221-.122-.405-1.715.023-1.475z" transform="scale(47.149857726004875) translate(-281.7735595703125 -221.4749755859375)"></path>
</svg>
