<?xml version="1.0" standalone="no"?>
<!DOCTYPE svg PUBLIC "-//W3C//DTD SVG 20010904//EN"
 "http://www.w3.org/TR/2001/REC-SVG-20010904/DTD/svg10.dtd">
<svg version="1.0" xmlns="http://www.w3.org/2000/svg"
 width="1024.000000pt" height="1024.000000pt" viewBox="-512 -512 1024 1024"
 preserveAspectRatio="xMidYMid meet">
  <path d="M243.759 214.455l1.172.313-.161 1.051-.589 1.314.164 1.477.731.647 1.848.021.414.115 1.221 1.118 1.415 1.633 1.044.294 1.208-.614s.772-.207 1.041-.236 1.414.037 1.414.037l1 .5.343 1.462.167 1.087-.037.633-.956.641-1.035.335-1.405.872-.844 1.576.314 1.643.441 1.691.195 1.588 1.159.909a6.463 6.463 0 00.824.978c.214.124 1.164.756 1.164.756l1.17.543.264 1.493-.309 1.167-.539 1.641-8.488-1.217.049-.307-4.557-.543 1.343-8.713-9.157-1.383-.069-.928 1.014-.6.777-1.038.033-1.008-.579-.66-.993-.747-.9-.872.116-1.035.509-1.061.522-1.487.687-.587 1.412-.691 1.739-1.1 1.4-1.31.86-1.229z" transform="scale(38.37357776341897) translate(-246.25751495361328 -227.79751586914062)"></path>
</svg>
