<?xml version="1.0" standalone="no"?>
<!DOCTYPE svg PUBLIC "-//W3C//DTD SVG 20010904//EN"
 "http://www.w3.org/TR/2001/REC-SVG-20010904/DTD/svg10.dtd">
<svg version="1.0" xmlns="http://www.w3.org/2000/svg"
 width="1024.000000pt" height="1024.000000pt" viewBox="-512 -512 1024 1024"
 preserveAspectRatio="xMidYMid meet">
  <path d="M514.076 431.784l.513-2.976.25-1.83-1.288-.232-.241-5.774h.691l-.22-1.948.674.079.724-4.037 1.272-3.918.252-3.261 5.578.341 2.32-.479 10.647 1.69 3.487 5.809-.804 2.699-1.623 2.029-.688 4.427-1.923 2.894-1.221 1.337 5.754 5.67.43 1.356 5.735 7.191-5.559.054-.365 2.772-1.935 2.604-4.989-.093-3.93-.801-2.628-1.142-1.289-2.641-1.423-3.806.226-3.187-2.956-2.843-3.74-2.447-1.731.463z" transform="scale(25.263980881720705) translate(-528.8524475097656 -428.0150604248047)"></path>
</svg>
