<?xml version="1.0" standalone="no"?>
<!DOCTYPE svg PUBLIC "-//W3C//DTD SVG 20010904//EN"
 "http://www.w3.org/TR/2001/REC-SVG-20010904/DTD/svg10.dtd">
<svg version="1.0" xmlns="http://www.w3.org/2000/svg"
 width="1024.000000pt" height="1024.000000pt" viewBox="-512 -512 1024 1024"
 preserveAspectRatio="xMidYMid meet">
  <path d="M555.462 374.085l3.404 2.976 2.594-3.664 2.469 1.579.959-1.303 2.665 1.698-2.235 2.873.12 1.597 4.684-.377 4.173-1.118-.033-3.067-1.027-2.573 7.478-.365-2.004-8.428 2.351-4.129-.34-1.689-5.793.024-4.757-1.953-2.498-2.444-1.587-4.339-1.949 1.882-3.385-2.506-.78 5.864-3.506 1.743-.185 1.406-3.457-.716-1.298-1.348-2.024.173-5.468-1.067-.993 9.592-1.079 4.637.577 1.806 2.904-.397 2.587.939 7.433 2.694z" transform="scale(26.189969668918213) translate(-561.5104675292969 -364.29998779296875)"></path>
</svg>
