<?xml version="1.0" standalone="no"?>
<!DOCTYPE svg PUBLIC "-//W3C//DTD SVG 20010904//EN"
 "http://www.w3.org/TR/2001/REC-SVG-20010904/DTD/svg10.dtd">
<svg version="1.0" xmlns="http://www.w3.org/2000/svg"
 width="1024.000000pt" height="1024.000000pt" viewBox="-512 -512 1024 1024"
 preserveAspectRatio="xMidYMid meet">
  <path d="M478.609 384.117l1.395.938 1.083 2.432.617 2.746 1.373 2.24 1.946 2.677 2.198 2.452 3.242 3.695 1.99 2.195-.038 2.696-2.076-.225-2.871-.957-1.914 3.828-1.914 1.914h-1.914l-1.539 1.998-5.374-.79.793-5.543-.981-1.193.243-1.461 1.495-1.58.206-1.508 1.085-.948.041-1.529 1.132-3.364 1.101-2.6-.445-.988-.407-2.284-.467-4.841z" transform="scale(35.76793037100995) translate(-483.5390167236328 -398.43150329589844)"></path>
</svg>
