<?xml version="1.0" standalone="no"?>
<!DOCTYPE svg PUBLIC "-//W3C//DTD SVG 20010904//EN"
 "http://www.w3.org/TR/2001/REC-SVG-20010904/DTD/svg10.dtd">
<svg version="1.0" xmlns="http://www.w3.org/2000/svg"
 width="1024.000000pt" height="1024.000000pt" viewBox="-512 -512 1024 1024"
 preserveAspectRatio="xMidYMid meet">
  <path fill-rule="evenodd" d="M154.528 258.505l12.209 1.253-2.35 21.524-3.085 4.252-9.688 8.038-10.379-1.008.4 8.342-7.045 4.559-3.101-.738 2.839-4.621-4.128-3.625-1.27-5.057.591-3.441-2.584-1.623-2.7-.668.712-2.791-1.716-1.456-1.154-3.512 1.518-4.774-1.046-1.974 1.951-6.829 3.124-4.892-2.855-4.228-22.617-3.139 5.793-45.681.782.106 1.378-8.046 11.876 1.697-3.006 26.028 14.194 2.415-1.913 15.671 24.517 2.592-1.247 11.626z" transform="scale(9.5710789074723) translate(-134.44548797607422 -251.9705047607422)"></path>
</svg>
