<?xml version="1.0" standalone="no"?>
<!DOCTYPE svg PUBLIC "-//W3C//DTD SVG 20010904//EN"
 "http://www.w3.org/TR/2001/REC-SVG-20010904/DTD/svg10.dtd">
<svg version="1.0" xmlns="http://www.w3.org/2000/svg"
 width="1024.000000pt" height="1024.000000pt" viewBox="-512 -512 1024 1024"
 preserveAspectRatio="xMidYMid meet">
  <path d="M439.476 96.774l-3.026-.539.815-5.187 1.777-2.15.061-4.069 2.166.307.993-6.09-.238-.498 1.623-2.503 3.862.756v-2.752l-9.243-1.338-.8-1.749 1.81-4.043.905-2.223-21.429 1.994-1.271-1.499-4.59-1.07h-5.87l-.825 4.106-5.189-.8-.127 2.377-2.563 1.252-.823 1.726 1.409 3.529-.836 4.137-3.542.738 1.066 2.36-2.236 3.769-.535 3.418-1.487 1.429.535 3.242 1.05 2.794 1.768 2.513.831 1.879 2.369-.829 2.168 1.524.207 3.26 1.369.396 2.011-1.606.711 2.129 3.201-.196 1.203-2.954 5.886.815 2.617-2.264 2.432.325-.576 3.969 5.297 1.596 2.156 1.755 1.86-2.4 2.706 1.103.667-4.495 1.689.157v3.235l1.037 2.609 2.301-2.49 2.135-1.945-.712-1.969 1.225-7.541z" transform="scale(18.228436516378437) translate(-419.4210205078125 -87.41999816894531)"></path>
</svg>
