<?xml version="1.0" standalone="no"?>
<!DOCTYPE svg PUBLIC "-//W3C//DTD SVG 20010904//EN"
 "http://www.w3.org/TR/2001/REC-SVG-20010904/DTD/svg10.dtd">
<svg version="1.0" xmlns="http://www.w3.org/2000/svg"
 width="1024.000000pt" height="1024.000000pt" viewBox="-512 -512 1024 1024"
 preserveAspectRatio="xMidYMid meet">
  <path d="M359.035 224.978l3.185.483 2.294.674 1.243-1.157 1.284-1.698.076-.342.754.105.311-.524 1.073-.3h.882l-.191.767.454.194-.46.54.307 1.433.631.492 1.053.486.708.452.047 1.078.718.69-.227.627-1.057-.389-.873-.972-.868-.096-.594-.743-.798.528-.731.907.055 1.06.208.615-.612 1.163-.479 1.17-.218 1.034-.063 1.432-.269.18.172.685.377.728-.508.594-.776-.154-1.224-.675.287-.827-.406-.022-.135-1.267-.237-.721-.296-1.465-1.056-.383-2.727 1.622-2.728-1.656-1.798-1.376-.885-2.224.307-1.715 1.321-.695.078-.864 2.391.526z" transform="scale(55.45334684089884) translate(-364.17103576660156 -229.54647827148438)"></path>
</svg>
