<?xml version="1.0" standalone="no"?>
<!DOCTYPE svg PUBLIC "-//W3C//DTD SVG 20010904//EN"
 "http://www.w3.org/TR/2001/REC-SVG-20010904/DTD/svg10.dtd">
<svg version="1.0" xmlns="http://www.w3.org/2000/svg"
 width="1024.000000pt" height="1024.000000pt" viewBox="-512 -512 1024 1024"
 preserveAspectRatio="xMidYMid meet">
  <path d="M420.123 228.375l12.269 1.719 3.137-20.996 4.316.63 1.532-9.748-.813-.336v-1.589l-.591-.461-.592.234-3.933-.313-2.574-.476-1.036 1.091-.889 1.689-4.728-3.001-1.503.611-1.165 1.117-.696 1.693-.774.579v-1.364l-.538.01-1.498 1.354-2.494.011-3.198-.425-1.209-3.052-.807.73-.304 2.171.946 2-1.095 1.407-1.759-.077-3.902-1.734-1.695.185-1.465 2.35-.42 1.4.035 2.213.744.5.937-.777 1.311 1.058.939 1.587-.321.326-1.071-.536-.801-1.036-.476.42-.203 1.572-.96.431-1.624.404-.22.054.86 1.523.616.803 1.427.531 1.819 1.624.88 2.149 1.149 1.057.319 2.211.557 1.178 1.724.64.565.089.557.847 1.669 1.132-.137.728-.133 1.273.211.82 1.115.622.745 1.434 1.375.998 1.917.081 1.434.869.519-4.234z" transform="scale(25.320182160495925) translate(-421.15599060058594 -214.71348571777344)"></path>
</svg>
