<?xml version="1.0" standalone="no"?>
<!DOCTYPE svg PUBLIC "-//W3C//DTD SVG 20010904//EN"
 "http://www.w3.org/TR/2001/REC-SVG-20010904/DTD/svg10.dtd">
<svg version="1.0" xmlns="http://www.w3.org/2000/svg"
 width="1024.000000pt" height="1024.000000pt" viewBox="-512 -512 1024 1024"
 preserveAspectRatio="xMidYMid meet">
  <path d="M383.974 261.086l-.062-.591-.229-.033-.325.4-.878-.126-.188.44-1.387-.031-.021 2.799h-.594l-.046 1.116-.027.702.559.843-.725 2.795.849 1.051-.344 1.552-.241-.035-.822 5.587 3.185.427-.059.41 1.39.241v-.383l.872.249.02.657 2.934.228 8.719 1.057 1.187-8.021.408-2.246-4.926-.657-.964-.528-1.279-.168-.964.138-.883.358 1.063-6.92.279.041.064-.4-1.297-.195-5.268-.757z" transform="scale(51.253806486301535) translate(-388.8210144042969 -270.4515075683594)"></path>
</svg>
