<?xml version="1.0" standalone="no"?>
<!DOCTYPE svg PUBLIC "-//W3C//DTD SVG 20010904//EN"
 "http://www.w3.org/TR/2001/REC-SVG-20010904/DTD/svg10.dtd">
<svg version="1.0" xmlns="http://www.w3.org/2000/svg"
 width="1024.000000pt" height="1024.000000pt" viewBox="-512 -512 1024 1024"
 preserveAspectRatio="xMidYMid meet">
  <path d="M496.96 426.495l-1.214.228-1.073-.163-1.484-.805-3.961-.753 1.995-10.632.452-4.395.74-3.787 1.405.242 1.329 1.413 2.742-.409 2.644-.045 2.321-.228 2.554-1.275.414-2.172.837-1.448 1.481-1.704-1.421 8.938 9.73 1.648-1.272 3.918-.724 4.037-.674-.079.22 1.948h-.691l.241 5.774 1.288.232-.763 4.806-17.116-5.289z" transform="scale(32.797434416238794) translate(-502.83949279785156 -416.1730194091797)"></path>
</svg>
