<?xml version="1.0" standalone="no"?>
<!DOCTYPE svg PUBLIC "-//W3C//DTD SVG 20010904//EN"
 "http://www.w3.org/TR/2001/REC-SVG-20010904/DTD/svg10.dtd">
<svg version="1.0" xmlns="http://www.w3.org/2000/svg"
 width="1024.000000pt" height="1024.000000pt" viewBox="-512 -512 1024 1024"
 preserveAspectRatio="xMidYMid meet">
  <path d="M447.982 272.506l-1.257-.02-.2-7.172 1.106-.206-.218-.832-.762-2.125-.8-4.4.424-2.476.763-.459.7-2.671 2.023 2.406.5-.243c.3.262 9.467.26 9.467.26l.377 1.359 1.07-.693 1.106 2 1.075-.418 2.007 2.8-.031 15.577-1.21-.7h-1.936l-1.562.537-2.224-.305-1.777.442-3.762.126-4.127-.37z" transform="scale(44.237151002785055) translate(-455.60704040527344 -263.7190170288086)"></path>
</svg>
