<?xml version="1.0" standalone="no"?>
<!DOCTYPE svg PUBLIC "-//W3C//DTD SVG 20010904//EN"
 "http://www.w3.org/TR/2001/REC-SVG-20010904/DTD/svg10.dtd">
<svg version="1.0" xmlns="http://www.w3.org/2000/svg"
 width="1024.000000pt" height="1024.000000pt" viewBox="-512 -512 1024 1024"
 preserveAspectRatio="xMidYMid meet">
  <path d="M290.909 123.976l3.332 1.014 7.501.981 2.251.211.848 1.307 1.008 1.924-1.066 1.873.647 1.633.596 2.245-.066 1.076-2.022-.012-.429 1.412.205 1.691-.102 1.553 1.751.384.347 2.015-.812 1.225-.463 1.901 1.319.2.02.954-.628 1.535 1.286.883-.56.677-1.701-.17-.881.745 1.167 1.209-.574 1.992-.737 1.665-.464 1.764-.542 2.406 1.845.246.08.8-.792.867-10.769-1.286-.444-2.837-.716-2.777-1.285-1.891-1.907-4.746-1.956-6.267-3.319-10.127-4.826-8.848.062-1.237 12.796 1.81z" transform="scale(25.589764835956384) translate(-292.24147033691406 -142.17399215698242)"></path>
</svg>
