<?xml version="1.0" standalone="no"?>
<!DOCTYPE svg PUBLIC "-//W3C//DTD SVG 20010904//EN"
 "http://www.w3.org/TR/2001/REC-SVG-20010904/DTD/svg10.dtd">
<svg version="1.0" xmlns="http://www.w3.org/2000/svg"
 width="1024.000000pt" height="1024.000000pt" viewBox="-512 -512 1024 1024"
 preserveAspectRatio="xMidYMid meet">
  <path d="M354.886 197.214l5.567.68.496-3.511-.521-.18.149-1.059-12.791-1.296-.173.436.925.208.573 1.162-1.437.445 1.24 1.262-.821.952-.774.318v.72l-1.428.499-1.19-.043-.161 1.386-.954.379.153 1.687 1.723 3.352-.965 1.031.493.802.82.074.157 1.216-1.212.853.952.682.977-.256 3.092.604 3.252 1.144 1.858-13.547z" transform="scale(54.142625594703595) translate(-352.2674255371094 -201.30449676513672)"></path>
</svg>
