<?xml version="1.0" standalone="no"?>
<!DOCTYPE svg PUBLIC "-//W3C//DTD SVG 20010904//EN"
 "http://www.w3.org/TR/2001/REC-SVG-20010904/DTD/svg10.dtd">
<svg version="1.0" xmlns="http://www.w3.org/2000/svg"
 width="1024.000000pt" height="1024.000000pt" viewBox="-512 -512 1024 1024"
 preserveAspectRatio="xMidYMid meet">
  <path d="M464.611 175.213l-10.448-2.42 1.384-9.772-1.384.427-.474 1-1.107-1.423 1.186-1.724h-2.135l-.87-.411-2.066-.118-.316 1.026-3.152-.5-2.333-3.352-.593 1.376-.366 3.075-9.788-1.308-.164 1.672.89.5 1.393-.285.682 1.779 1.068.712 1.957.036.83.782 1.9 2.064-2.49 20.209 2.372-.356.889-.356s.623 1.637.771 1.566a18.424 18.424 0 001.216-1.708l.83-.89.712 1.6 1.541-.142 1.755-1.136.8-.927 1.691.263-.022 3.478 2.492-.49.881-2.734 2.749.87.265-5.726.469-3.067 3.274-.716 3.293 1.217z" transform="scale(31.38600434575606) translate(-448.29798889160156 -173.947998046875)"></path>
</svg>
