<?xml version="1.0" standalone="no"?>
<!DOCTYPE svg PUBLIC "-//W3C//DTD SVG 20010904//EN"
 "http://www.w3.org/TR/2001/REC-SVG-20010904/DTD/svg10.dtd">
<svg version="1.0" xmlns="http://www.w3.org/2000/svg"
 width="1024.000000pt" height="1024.000000pt" viewBox="-512 -512 1024 1024"
 preserveAspectRatio="xMidYMid meet">
  <path d="M260.499 179.986l.245-.382 5.601.827-.225-1.28 1.622-.454.738 2.467 2.13-.468-.403-1.487.436-.108 1.909 1.122.431.065-.244 1.567 1.505.228.34.973-.317 1.103v1.409l-.127 1.219-1.715-.164-1.523-.321-1.961.307.76 2.481-1.908.559-.579-.647-1.384-.498-1.273.16-.76-.822-.69-1.415-.733-.186-.591.91-.74-1.018-.095-1.03.901-.597-.945-1.043-1.2-.266-1.194.264-.303-.919-.441-.593-.5.853-.969.221.26-2.033-.798-.652-.318-.997 5.058.645z" transform="scale(53.49203783324486) translate(-265.0124969482422 -184.17298889160156)"></path>
</svg>
