<?xml version="1.0" standalone="no"?>
<!DOCTYPE svg PUBLIC "-//W3C//DTD SVG 20010904//EN"
 "http://www.w3.org/TR/2001/REC-SVG-20010904/DTD/svg10.dtd">
<svg version="1.0" xmlns="http://www.w3.org/2000/svg"
 width="1024.000000pt" height="1024.000000pt" viewBox="-512 -512 1024 1024"
 preserveAspectRatio="xMidYMid meet">
  <path d="M499.264 237.761l-1.227.11-1.137.762-1.252 1.403-.685 1.86.155.704-1.581.911.42 2.291.56.881.092 1.509 2.825 3.994.92.721-.259.679 1.085 2.461-3.313 1.686 7.16.84 2.405.75 10.071 1.542.039-1.073 6.124.913.346-2.38 3.924.684.469-2.162-1.432-.263.214-1.32-.072-1.454.458-.871-.628-.098.305-1.834.721.085.048-1.309.239-1.692h-.581l.524-2.228.853.271.354-1.329.894.485.073-2.212 1.054-.87-.286-.574-1.522-.21.329-2.465-.998-1.198.18-1.068 1.421.392-.554-.989-.477-1.944.491-1.214.784-.69-.552-1-1.203-.405-1.494-.718-1.413-1.971-1.129-2.231-1.434-.589-2.309 2.305-1.44 5.873-5.387 2.884-2.808.802-.863 1.357-2.712-1.737-6.493-.923-.296 1.866z" transform="scale(28.52998739064595) translate(-511.48304748535156 -243.09947967529297)"></path>
</svg>
