<?xml version="1.0" standalone="no"?>
<!DOCTYPE svg PUBLIC "-//W3C//DTD SVG 20010904//EN"
 "http://www.w3.org/TR/2001/REC-SVG-20010904/DTD/svg10.dtd">
<svg version="1.0" xmlns="http://www.w3.org/2000/svg"
 width="1024.000000pt" height="1024.000000pt" viewBox="-512 -512 1024 1024"
 preserveAspectRatio="xMidYMid meet">
  <path d="M486.107 281.139l1.26-.632 2.597-.015 2.307-.768 3.732-.095 3.49-.061 2.151.259 1.473-.887 2.076.231 2.339-.779 2.12.254 1.039-1.857 4.247.154-.743 14.93-5.069-.846-.232 2.409-6.544-.718-1.233 4.76-6.982-1.496-1.761.349-1.154-.932.148-.89-.947-.53-1.035.311-.9-.526-.181-.626-2.501-.951 1.592-3.656-.671-.254 1.812-3.154-5.028 1.398-.112-.649-1.282.353-.257-4.89 4.249-.196z" transform="scale(30.955358213664315) translate(-498.3979797363281 -287.1334991455078)"></path>
</svg>
