<?xml version="1.0" standalone="no"?>
<!DOCTYPE svg PUBLIC "-//W3C//DTD SVG 20010904//EN"
 "http://www.w3.org/TR/2001/REC-SVG-20010904/DTD/svg10.dtd">
<svg version="1.0" xmlns="http://www.w3.org/2000/svg"
 width="1024.000000pt" height="1024.000000pt" viewBox="-512 -512 1024 1024"
 preserveAspectRatio="xMidYMid meet">
  <path d="M314.153 192.137l7.487 1.11.205.577.397.049.428-.729 4.824.531 1.246.14.094-.652.85.139-.095.658 2.534.437 2.494.162-.017.343.816.11.06-.375 7.725 1.087 2.556.143 1.562.101v1.383l-1.428.499-1.19-.043-.161 1.386-.954.379.153 1.687 1.082 2.073.641 1.279-.965 1.031.493.802.82.074.157 1.216-1.212.853-1.109.923-.669 1.042.239 1.11-.237.886-.245 1.513-33.526-4.703.044-.311-.225-1.005-.139-1.328.875-.425-.147-.488-.747-.62-.571-1.278 2.155-4.71.305-1.064.98-6.547 2.415.555z" transform="scale(26.242261901503237) translate(-327.8085174560547 -202.82152557373047)"></path>
</svg>
