<?xml version="1.0" standalone="no"?>
<!DOCTYPE svg PUBLIC "-//W3C//DTD SVG 20010904//EN"
 "http://www.w3.org/TR/2001/REC-SVG-20010904/DTD/svg10.dtd">
<svg version="1.0" xmlns="http://www.w3.org/2000/svg"
 width="1024.000000pt" height="1024.000000pt" viewBox="-512 -512 1024 1024"
 preserveAspectRatio="xMidYMid meet">
  <path d="M482.439 184.854l-2.218-1.881 2.061-2.569-5.552-.921-.165 1.18-3.15 1.481-1.939-1.565-7.291-1.277-3.293-1.217-3.274.716-.469 3.067-.265 5.726-2.749-.87-.881 2.734-2.492.49.022-3.478-1.768 3.895-.235 1.41h3.506l-.268 3.267.434.871-1.679 1.626.121 1.931 3.492 3.266 1.014-2.405-.32-2.955 1.809-3.183 3.38.347 2.884-1.164 3.282 1.402-.783 3.291-4.534 1.322-2.984.261-.838 1.509 1.986 1.784 3.48-.668 2.201-1.091 1.915-.278 2.227-2.839 4.539.554 2.545 1.965 1.313-1.466-2.755-2.03.442-1.909 4.416-.438 2.325 2.559 2.715 1.811.679-4.405-2.199-3.379-.687-6.477z" transform="scale(28.021034294718962) translate(-467.0530242919922 -190.51502227783203)"></path>
</svg>
