<?xml version="1.0" standalone="no"?>
<!DOCTYPE svg PUBLIC "-//W3C//DTD SVG 20010904//EN"
 "http://www.w3.org/TR/2001/REC-SVG-20010904/DTD/svg10.dtd">
<svg version="1.0" xmlns="http://www.w3.org/2000/svg"
 width="1024.000000pt" height="1024.000000pt" viewBox="-512 -512 1024 1024"
 preserveAspectRatio="xMidYMid meet">
  <path d="M544.275 413.926l1.502.221.569-3.282-1.825-.266 2.69-4.21.419-1.875 3.837-2.063 3.179-2.172 4.153.629.882-4.903 3.732-3.84.43-3.826-22.885-3.361-6.329.401-10.535-1.591-12.361-2.938-.074 3.438-.915 1.625-1.259 6.205-2.764 17.382 9.73 1.648.252-3.261 5.578.341 2.32-.479 10.647 1.69 3.487 5.809 4.848.751.692-2.073z" transform="scale(17.926549854068842) translate(-535.2820281982422 -398.4245300292969)"></path>
</svg>
