<?xml version="1.0" standalone="no"?>
<!DOCTYPE svg PUBLIC "-//W3C//DTD SVG 20010904//EN"
 "http://www.w3.org/TR/2001/REC-SVG-20010904/DTD/svg10.dtd">
<svg version="1.0" xmlns="http://www.w3.org/2000/svg"
 width="1024.000000pt" height="1024.000000pt" viewBox="-512 -512 1024 1024"
 preserveAspectRatio="xMidYMid meet">
  <path d="M344.324 241.93a25.338 25.338 0 01-2.512-.493l-.88-1.916-2.108-.168-2.61.2-1.141-.357-2.549-.561-1.468-.2-.332.425 1.406 1.242 2.812 3.553-.2.66-1.447-.188-1.774-.434-.3 1.15 1.682 1.3a3.961 3.961 0 01.846.229c.134.1-.149 1.264-.149 1.264l2.132.979.133.549-1.1.456-.467.636 1.464 1.171.262 1.006-1.4.517-1.9-.6-.949-2.233-.974-.563-1.525-.477-1.09 1.1-1.808.478-.361-1.385.84-.6 1.312-1.184-.158-.592-1.423.189-1.423 1.462-.865-.181.034-1.65-.613-.185-1.336 1.126a7.939 7.939 0 00-.886.039 1.2 1.2 0 00.229.835c.182.165 1.376.862 1.376.862l1.391 1.182.96.767 1.291 1.571-1.563 1.447-1.935-.748-.771-.191-1.463.939s.723.867.87 1.066a4.63 4.63 0 001.262.5h3.057l1.418.291.384 1.814.6.5s2.174-.068 2.369 0 1.217.367 1.217.367l.174.483-.145.482 29.451 4.229.344-1.586 1.09-6.853.787-4.944-8.01-1.174-2.879 1.5.066-.5-.344-.049.256-1.7-5.775-2.631.564-1.554.717-1.334-.717-1.451z" transform="scale(23.881716067887712) translate(-342.45306396484375 -251.2624969482422)"></path>
</svg>
