<?xml version="1.0" standalone="no"?>
<!DOCTYPE svg PUBLIC "-//W3C//DTD SVG 20010904//EN"
 "http://www.w3.org/TR/2001/REC-SVG-20010904/DTD/svg10.dtd">
<svg version="1.0" xmlns="http://www.w3.org/2000/svg"
 width="1024.000000pt" height="1024.000000pt" viewBox="-512 -512 1024 1024"
 preserveAspectRatio="xMidYMid meet">
  <path d="M412.445 193.989l1.996 2.192-2.102 1.901-.304 2.171.946 2-1.095 1.407-1.759-.077-2.491-1.177-1.411-.557-1.695.185-1.465 2.35-.42 1.4.035 2.213.744.5.937-.777 1.311 1.058.939 1.587-.321.326-1.071-.536-.801-1.036-.476.42-.203 1.572-.96.431-1.844.458-2.18.623-.862 1.307-.806-.017-1.298.243-4.313-1.653-3.606-3.562.479-1.585.857.415.974-.415-.583-1.559.308-.449.36.673.592-.562.209-1.072-.748-1.546.519-.766 2.097-1.169.493-1.162.729.256.246-.691-.595-.995 1.291-.722-.275-.864-1.561.136-1.45-.519-.089-1.202 1.168-.064.975-1.44.613-1.088-.927-1.17-.022-.907 1.236.249.792-.387-.18-.461-.685.038-1.068-1.676 1.121-.445.693-1.042.957.841 1.77 1.43 2.708-.967 2.221.593 2.834 2.568 3.16 2.394 3.356.38z" transform="scale(37.3640520666941) translate(-401.155517578125 -200.45301055908203)"></path>
</svg>
