<?xml version="1.0" standalone="no"?>
<!DOCTYPE svg PUBLIC "-//W3C//DTD SVG 20010904//EN"
 "http://www.w3.org/TR/2001/REC-SVG-20010904/DTD/svg10.dtd">
<svg version="1.0" xmlns="http://www.w3.org/2000/svg"
 width="1024.000000pt" height="1024.000000pt" viewBox="-512 -512 1024 1024"
 preserveAspectRatio="xMidYMid meet">
  <path d="M234.608 258.893l-6.934 2.418-1.286 8.549 3.228-.116 3.12.037 8.961.768.177-.8h2.162l.656-1.077 1-.711.969.142.285 1 .422.94 1.931.633 1.038-.339.187.991.881.486.494-4.16 6.5.825s.848-.945.823-1.13 0-2.647 0-2.647l-.831-2.366-3.557-.4.6-2.42-2.171-.506.234-.73-3.197-.28.039-.5h-2.411l-.356 1.241-.751-.464-2.838-.409-.4 2.543z" fill-rule="evenodd" transform="scale(31.186677101128147) translate(-242.80526733398438 -264.6570129394531)"></path>
</svg>
