<?xml version="1.0" standalone="no"?>
<!DOCTYPE svg PUBLIC "-//W3C//DTD SVG 20010904//EN"
 "http://www.w3.org/TR/2001/REC-SVG-20010904/DTD/svg10.dtd">
<svg version="1.0" xmlns="http://www.w3.org/2000/svg"
 width="1024.000000pt" height="1024.000000pt" viewBox="-512 -512 1024 1024"
 preserveAspectRatio="xMidYMid meet">
  <path d="M516.221 176.806l2.189-5.322-4.06.572-2.466 4.276 1.439 2.405.087 1.848 1.293 1.197-2.606 2.759-.436-3.382-3.429-.809-.086 1.679-3.162.248 2.142-4.91-1.956-1.166.043-3.171-3.662-.629.881 4.206-2.512-.758-6.876 2.333 1.134 1.618-1.901 3.551-2.925.401v3.558l-4.011-2.601.337 3.484-2.552 3.138 2.199 3.379-.679 4.405 1.992 4.013-.26 2.202 3.116 2.773 2.149-2.216.995 2.656.662 6.256 2.044 4.411.143 2.228 2.68 1.526 2.547.323.054 2.004 6.316.214-2.916-4.388 4.258-1.734 12.135 1.148 1.451-3.148-3.808.051 1.12-3.093-.765-.679 1.674-3.559-3.148-1.065-.983-7.067-1.388-4.07 2.482-3.582-1.718-1.011 3.002-1.887.933-3.538-1.563-2.566.839-5.253-2.468-3.258z" transform="scale(18.955603423195317) translate(-502.56910705566406 -198.49447631835938)"></path>
</svg>
