<?xml version="1.0" standalone="no"?>
<!DOCTYPE svg PUBLIC "-//W3C//DTD SVG 20010904//EN"
 "http://www.w3.org/TR/2001/REC-SVG-20010904/DTD/svg10.dtd">
<svg version="1.0" xmlns="http://www.w3.org/2000/svg"
 width="1024.000000pt" height="1024.000000pt" viewBox="-512 -512 1024 1024"
 preserveAspectRatio="xMidYMid meet">
  <path fill-rule="evenodd" d="M207.572 207.326l-9.825-13.926-14.791-1.425-7.57-.319-1.722 11.6-.647 3.774 8.491 1.079 1.087.267.364.926 1.01 1.051.586 1.972 1.083 2-.246 1.804.682 1.565 1.157.712.593 1.636 2.745 2.016.312 1.802 1.903.914 1.493.913 2.016-.569 2.167-2.125-.156-1.527 2.061-1.551 1.542-3.383 5.403-4.635 1.139-2.908-1.719-.203-.277-.983 1.119-.477z" transform="scale(28.900423414950097) translate(-190.73300170898438 -208.6715087890625)"></path>
</svg>
