<?xml version="1.0" standalone="no"?>
<!DOCTYPE svg PUBLIC "-//W3C//DTD SVG 20010904//EN"
 "http://www.w3.org/TR/2001/REC-SVG-20010904/DTD/svg10.dtd">
<svg version="1.0" xmlns="http://www.w3.org/2000/svg"
 width="1024.000000pt" height="1024.000000pt" viewBox="-512 -512 1024 1024"
 preserveAspectRatio="xMidYMid meet">
  <path d="M375.037 289.575l-2.822-.14-5.724-.982-4.949-.646-.101.704-.447-.086-.394-.763-1.782-.244-.704.2.231-.932-.753-.257-.196.739-2.591.729-1.384-.693-1.25-.375-.701 1.57-.916.017-.83 4.87-.114 2.946-.782 5.034 12.451 1.727 1.033-.695.944 2.227 1.107-.503-.689-1.863-.418-.577.299-.953.711.463.509 1.458.569-.01.433 1.052 1.067.347 1.067-.371 1.307.287 1.635-.121 1.478.404.123-3.717.563-3.5 1.115.858 1.674.263.29-.304 1.057-.174v.616l1.614.261.916.344 1.533.042.522-.035 3.052.633.091-.79 1.151-7.507-10.995-1.553z" transform="scale(27.523937330817816) translate(-367.429931640625 -295.47705078125)"></path>
</svg>
