<?xml version="1.0" standalone="no"?>
<!DOCTYPE svg PUBLIC "-//W3C//DTD SVG 20010904//EN"
 "http://www.w3.org/TR/2001/REC-SVG-20010904/DTD/svg10.dtd">
<svg version="1.0" xmlns="http://www.w3.org/2000/svg"
 width="1024.000000pt" height="1024.000000pt" viewBox="-512 -512 1024 1024"
 preserveAspectRatio="xMidYMid meet">
  <path d="M521.666 260.705l.346-2.38 3.924.684.469-2.162-1.432-.263.214-1.32-.072-1.454.458-.871-.628-.098.305-1.834.721.085.048-1.309.239-1.692h-.581l.524-2.228.853.271.354-1.329.894.485v.512l.932.159.195-1.273 1.351.37-.234 1.45 2.027.298.539-3.41 4.015 2.369 1.781.241 3.954 4.26 5.195.707-1.256 4.057-1.233.069-1.26 2.628-5.42 4.374 2.691 7.345-.569 2.28 4.562 3.33-4.672 12.607-2.533-3.151-2.81 1.043.518-3.004-.002-6.903-1.288-10.937-8.425 2.796.694-4.487-3.516-.142-2.425 1.225.553-3.398z" transform="scale(23.132372771519574) translate(-534.5850219726562 -265.5294494628906)"></path>
</svg>
