<?xml version="1.0" standalone="no"?>
<!DOCTYPE svg PUBLIC "-//W3C//DTD SVG 20010904//EN"
 "http://www.w3.org/TR/2001/REC-SVG-20010904/DTD/svg10.dtd">
<svg version="1.0" xmlns="http://www.w3.org/2000/svg"
 width="1024.000000pt" height="1024.000000pt" viewBox="-512 -512 1024 1024"
 preserveAspectRatio="xMidYMid meet">
  <path d="M425.746 160.984l-.372.486-.408-.61-.504.723-.305 1.276-.233.94-1.071 2.27 1.017 1.201.911.372.663.984.258.587-.838.62-.341.992.311.998-1.756.25-.991.794.203 1.283-1.314.645h-.791l-.484.866.562.907.395.438-10.236-1.351-2.616-2.471.233-2.532-.251-.509 1.064-.969 3.106-1.339.366-.802.849-.019.242-.564-.128-.567.473-.223-.915-1.482.514-.866-2.3-1.339-.51-.972 2.965-2.567 4.453.164 8.027 1.48-.248.906z" transform="scale(55.136791840504) translate(-416.8909912109375 -167.7200164794922)"></path>
</svg>
