<?xml version="1.0" standalone="no"?>
<!DOCTYPE svg PUBLIC "-//W3C//DTD SVG 20010904//EN"
 "http://www.w3.org/TR/2001/REC-SVG-20010904/DTD/svg10.dtd">
<svg version="1.0" xmlns="http://www.w3.org/2000/svg"
 width="1024.000000pt" height="1024.000000pt" viewBox="-512 -512 1024 1024"
 preserveAspectRatio="xMidYMid meet">
  <path d="M524.135 228.154l1.413 1.971 1.494.718 1.203.405.552 1-.784.69-.491 1.214.477 1.944.554.989-1.421-.392-.18 1.068.998 1.198-.329 2.465 1.522.21.286.574-1.054.87-.073 2.212v.512l.932.159.195-1.273 1.351.37-.234 1.45 2.027.298.539-3.41 4.015 2.369 1.781.241 3.954 4.26 5.195.707 2.261.309 3.174 1.008 1.657-10.177 4.272-2.98-5.518-.664.187-2.491-1.881-1.331.864-3.931h-7.283l-2.181-1.034 2.936-10.971-12.267-2.16-1.192 5.704-2.885-1.138-1.118 3.49-2.315.009-.737 2.55-3.025-1.243 1.129 2.231z" transform="scale(28.12020280745862) translate(-541.2134094238281 -234.42050170898438)"></path>
</svg>
