<?xml version="1.0" standalone="no"?>
<!DOCTYPE svg PUBLIC "-//W3C//DTD SVG 20010904//EN"
 "http://www.w3.org/TR/2001/REC-SVG-20010904/DTD/svg10.dtd">
<svg version="1.0" xmlns="http://www.w3.org/2000/svg"
 width="1024.000000pt" height="1024.000000pt" viewBox="-512 -512 1024 1024"
 preserveAspectRatio="xMidYMid meet">
  <path d="M379.618 205.461l-2.655 4.748.525.453-.771 2.346 1.125.579-.36.534-.915.731-.28-.599-.387-1.16-.933-.247-.753.384-.252.755.273 1.037 1.029.338.694.504-.445.484-.745.01-.763-.546-1.135-.12-.674-.348-.515.326-.473.651 1.699.48.818.223.111.924-1.905.112-10.638-1.434-.535-.698-.761-.41-.794-.984.572-.752 1.005-6.836 7.695.855 4.181.293 2.136.278-.016 1.299.38-.006.631-4.178.093-1.527 3.738 1.501z" transform="scale(50.159100693613965) translate(-369.4104919433594 -211.0099868774414)"></path>
</svg>
