<?xml version="1.0" standalone="no"?>
<!DOCTYPE svg PUBLIC "-//W3C//DTD SVG 20010904//EN"
 "http://www.w3.org/TR/2001/REC-SVG-20010904/DTD/svg10.dtd">
<svg version="1.0" xmlns="http://www.w3.org/2000/svg"
 width="1024.000000pt" height="1024.000000pt" viewBox="-512 -512 1024 1024"
 preserveAspectRatio="xMidYMid meet">
  <path d="M478.677 364.575l-2.297 6.958.872 1.923 2.008 1.665-1.008 2.181.795 2.15-.445 1.88.007 2.785 1.395.938 1.083 2.432.617 2.746 1.373 2.24 1.946 2.677 2.198 2.452 5.232 5.89-.038 2.696 1.405.242 1.329 1.413 2.742-.409 2.644-.045 2.321-.228 2.554-1.275.414-2.172 2.318-3.152 1.343-8.444 1.259-6.205.915-1.625.074-3.438-2.948-1.178-9.857-2.06-3.116.299-9.046-7.969-.845-4.39-7.244-.977z" transform="scale(23.66643132668974) translate(-494.0565185546875 -386.2090301513672)"></path>
</svg>
