<?xml version="1.0" standalone="no"?>
<!DOCTYPE svg PUBLIC "-//W3C//DTD SVG 20010904//EN"
 "http://www.w3.org/TR/2001/REC-SVG-20010904/DTD/svg10.dtd">
<svg version="1.0" xmlns="http://www.w3.org/2000/svg"
 width="1024.000000pt" height="1024.000000pt" viewBox="-512 -512 1024 1024"
 preserveAspectRatio="xMidYMid meet">
  <path d="M327.234 275.921l.685 1.072.581.095.4-.773.164-.825.544-.458.683-.328 1.201.29.823.565.542.324.532.174.678-.342 1.174-.031.401.142.84.33.461.841.402.399 1.006.495 1.812 2.02 1.096.441 1.975-.14-.591 5.153-.526 1.596.342 2.324-.55 1.131-.159 1.321-11.592-1.927-6.099-.964 2.148-13.311 1.027.386z" transform="scale(53.40290231504028) translate(-333.6465759277344 -283.220458984375)"></path>
</svg>
