<?xml version="1.0" standalone="no"?>
<!DOCTYPE svg PUBLIC "-//W3C//DTD SVG 20010904//EN"
 "http://www.w3.org/TR/2001/REC-SVG-20010904/DTD/svg10.dtd">
<svg version="1.0" xmlns="http://www.w3.org/2000/svg"
 width="1024.000000pt" height="1024.000000pt" viewBox="-512 -512 1024 1024"
 preserveAspectRatio="xMidYMid meet">
  <path d="M224.78 210.611l2.71-.349 13.556 1.814 1.173-3.969.04-2.001h-.995l-.221-1.127 1.263-1.969-1.113-2.925-2.56-.559.19-1.667-1.707-1.263.613-.901-2.001-1.222.477-.867-5.832-1.432-6.372-1.392-2.004-.044-2.932-.756.698 4.911-.896 1.821-2.906-.694-.888-1.731-1.5-1.694-1.717-1.163-.731-1.574-3.17-1.235-1.083 4.23.293 2.474.593 1.528 1.514.649 3.151-.327-.831 5.692 1.192-.031.864.98.16 3.795 4.175-.248 1.88 2.19.235 1 4.682.056z" transform="scale(28.898805530268255) translate(-224.58901977539062 -200.34947204589844)"></path>
</svg>
