<?xml version="1.0" standalone="no"?>
<!DOCTYPE svg PUBLIC "-//W3C//DTD SVG 20010904//EN"
 "http://www.w3.org/TR/2001/REC-SVG-20010904/DTD/svg10.dtd">
<svg version="1.0" xmlns="http://www.w3.org/2000/svg"
 width="1024.000000pt" height="1024.000000pt" viewBox="-512 -512 1024 1024"
 preserveAspectRatio="xMidYMid meet">
  <path d="M279.23 229.019l-.023 1.475.405 1.715-4.607-.648.115.358-.344.22 1.622 2.529-.853.359-.989-.21-.929-.057-.991-.762-.642.632-1.088-.04-1.044-.364-.374 2.693-2.861-.049-2.817-3.423-2.884 2.03-1.123 1.129-.614 1.557-.252 1.742-.937-.122-.421 1.106-.136.928-.755.836-.249-.851.156-.665.539-1.641.309-1.167-.264-1.493-1.17-.543-1.164-.756-.824-.978-1.159-.909-.195-1.588-.441-1.691-.314-1.643.844-1.576 1.405-.872 1.035-.335 24.034 3.074z" transform="scale(36.96751309804682) translate(-265.76200103759766 -234.29901885986328)"></path>
</svg>
