<?xml version="1.0" standalone="no"?>
<!DOCTYPE svg PUBLIC "-//W3C//DTD SVG 20010904//EN"
 "http://www.w3.org/TR/2001/REC-SVG-20010904/DTD/svg10.dtd">
<svg version="1.0" xmlns="http://www.w3.org/2000/svg"
 width="1024.000000pt" height="1024.000000pt" viewBox="-512 -512 1024 1024"
 preserveAspectRatio="xMidYMid meet">
  <path d="M382.835 308.339h-.699l-.643-.784-1.344.429-1.649.295-1.383.728-1.663.145-1.034 1.122-4.237.515-1.253-.562-.834.15-.074-1.212.41-.981-1.675-1.668-1.094-1.944h-1.12l-.18-.55-1.107.503-.944-2.227-1.033.695-2.859-.377-9.592-1.35-.119.778-.473.11-.352 2.91-.225 1.72-.73.018-.174 1.813 1.597 2.089 1.272.111 1.288.18 1.517.53 1.235 1.36 1.534 2.458.911 1.076 1.237.69 6.921 1.253 2.95-.034 2.45.028 4.745 2.064 1.173.437 1.036.767 1.027 1.521 1.233 1.273.925.408 1.377.148.767-4.751 1.629-10.249.266-2.311-.682.236-.328.44z" transform="scale(27.608499826389746) translate(-365.300048828125 -313.11997985839844)"></path>
</svg>
