<?xml version="1.0" standalone="no"?>
<!DOCTYPE svg PUBLIC "-//W3C//DTD SVG 20010904//EN"
 "http://www.w3.org/TR/2001/REC-SVG-20010904/DTD/svg10.dtd">
<svg version="1.0" xmlns="http://www.w3.org/2000/svg"
 width="1024.000000pt" height="1024.000000pt" viewBox="-512 -512 1024 1024"
 preserveAspectRatio="xMidYMid meet">
  <path d="M444.308 222.167l1.078 3.589-.367 3.629-.892-.204-1.06-1.298-.247 1.196-2.417-.145-.196 1.351 1.201-.091-.311.803-1.051.375-1.273 7.083-1.877.392-.317 2.601 1.514.44-.383 1.59-1.636.927-.869 5.205.206 1.259h-1.075l-.148 1.143 2.094.373 2.167.23 2.714 1.012 2.433-.82 2.071-.44.555-1.316 1.515 1.09 2.023 2.406.504-.243 9.467.26.377 1.359 1.07-.693 1.106 2.001 1.075-.418 2.007 2.8 1.269-.897L468.1 242.7l2.505 1.578-.147-2.037-1.883-.827-1.94-.356-.352 1.463-.734.3-7.866-.869-1.773-2.606-1.679-.452-.7-2.076-1.122-.588.083-1.768-.76-1.462-1.912-.207.3-1.186-.3-.931 2.659-1.285 3.098-2.166.302-1.934-.37-2.503-1.889-.488.012-.671-2.469-.329.067-1.523-4.173-.644-.217 3.05-1.145.097-1.387-.113z" transform="scale(25.29643582225928) translate(-452.39649963378906 -239.3729705810547)"></path>
</svg>
