<?xml version="1.0" standalone="no"?>
<!DOCTYPE svg PUBLIC "-//W3C//DTD SVG 20010904//EN"
 "http://www.w3.org/TR/2001/REC-SVG-20010904/DTD/svg10.dtd">
<svg version="1.0" xmlns="http://www.w3.org/2000/svg"
 width="1024.000000pt" height="1024.000000pt" viewBox="-512 -512 1024 1024"
 preserveAspectRatio="xMidYMid meet">
  <path d="M317.415 219.789l.074-.459-3.555-.575-.084.517-1.598-.517.151-1.231-3.476-.685.693 1.375.967.878-.092.697-.948-.205.286 1.057.754.143.604.914.868.814.114.539-.731.843-.09.998-.08 1.477 1.02.874.278.794.393 1.353.447.413.706.118.099.62.031.69.504.602.301.596.077.757.132.512.712.234.413.175.127.366-.129.361.035.495.085.667.592.327.322.091.513.344.996.961.472.386.668.287.621.088.58-.221.747-.563.578-.714.412-.493.497-.153.464.196.473.304.304.696 1.459-.397 1.677.012 1.323.203 1.562-.368 1.061-1.702 1.461-10.488.651.303.325-1.889-.707-.2.145-1.012-16.284-2.205z" transform="scale(40.41991649661626) translate(-321.5940246582031 -227.6595001220703)"></path>
</svg>
