<?xml version="1.0" standalone="no"?>
<!DOCTYPE svg PUBLIC "-//W3C//DTD SVG 20010904//EN"
 "http://www.w3.org/TR/2001/REC-SVG-20010904/DTD/svg10.dtd">
<svg version="1.0" xmlns="http://www.w3.org/2000/svg"
 width="1024.000000pt" height="1024.000000pt" viewBox="-512 -512 1024 1024"
 preserveAspectRatio="xMidYMid meet">
  <path d="M372.331 304.138l.123-3.717.563-3.5 1.115.858 1.674.263.29-.304 1.057-.174v.616l1.614.261.916.344 1.533.042.522-.035 3.052.633-.945 8.238-.682.236-.328.44h-.699l-.643-.784-1.344.429-1.649.295-1.383.728-1.663.145-1.034 1.122-4.237.515-1.253-.562-.834.15-.074-1.212.41-.981-1.675-1.668-1.094-1.944h-1.12l-.18-.55-.689-1.863-.418-.577.299-.953.711.463.509 1.458.569-.01.433 1.052 1.067.347 1.067-.371 1.307.287 1.635-.121 1.478.404z" transform="scale(47.552782285208146) translate(-374.0229949951172 -303.85498046875)"></path>
</svg>
