<?xml version="1.0" standalone="no"?>
<!DOCTYPE svg PUBLIC "-//W3C//DTD SVG 20010904//EN"
 "http://www.w3.org/TR/2001/REC-SVG-20010904/DTD/svg10.dtd">
<svg version="1.0" xmlns="http://www.w3.org/2000/svg"
 width="1024.000000pt" height="1024.000000pt" viewBox="-512 -512 1024 1024"
 preserveAspectRatio="xMidYMid meet">
  <path d="M257.266 182.8l.5-.853.441.593.3.919 1.194-.264a6.022 6.022 0 011.2.266 11.108 11.108 0 01.945 1.043l-.9.6.1 1.03.74 1.018.591-.91.733.186.69 1.415.76.822s1.084-.166 1.273-.16a12.267 12.267 0 011.384.5l.579.647 1.257 1.162.737 1.351.29.885.847-.367.679.724.256.643-.761.778.29 1.07 1.045.407.988 1.336.59 1.979.687.383.227 1.957.887 1.309 1.225.352.673.875.239.331-.179.455-.663.255-.368-.635-16.546-2.157-2.959-5.28 4.8-1.633 3.9-.435.188-1.21-3.05-1.968.3-2.046-2.053-.55-1.713-1.232-1.475-.345-.187-1.738-2.005-1.339v-1.131l.361-.812z" transform="scale(43.40817440666082) translate(-266.9470520019531 -193.7420196533203)"></path>
</svg>
