<?xml version="1.0" standalone="no"?>
<!DOCTYPE svg PUBLIC "-//W3C//DTD SVG 20010904//EN"
 "http://www.w3.org/TR/2001/REC-SVG-20010904/DTD/svg10.dtd">
<svg version="1.0" xmlns="http://www.w3.org/2000/svg"
 width="1024.000000pt" height="1024.000000pt" viewBox="-512 -512 1024 1024"
 preserveAspectRatio="xMidYMid meet">
  <path d="M257.579 240.889l.421-1.106.937.122.252-1.742.614-1.557 1.123-1.129 2.884-2.03 2.817 3.423 2.861.049.374-2.693 1.044.364 1.088.04.642-.632.991.762.929.057.989.21.853-.359 1.083 1.31 2.157 1.273 2.058 2.643-1.63 1.292-10.975-1.238.984 1.357-6.619 4.9-2.582-1.028-1.724-.573-1.742-1.125-.72-.826.755-.836.136-.928z" transform="scale(40.94690418835773) translate(-269.1920471191406 -239.82598876953125)"></path>
</svg>
