<?xml version="1.0" standalone="no"?>
<!DOCTYPE svg PUBLIC "-//W3C//DTD SVG 20010904//EN"
 "http://www.w3.org/TR/2001/REC-SVG-20010904/DTD/svg10.dtd">
<svg version="1.0" xmlns="http://www.w3.org/2000/svg"
 width="1024.000000pt" height="1024.000000pt" viewBox="-512 -512 1024 1024"
 preserveAspectRatio="xMidYMid meet">
  <path d="M596.094 223.869l3.538-22.809-24.855-3.411-1.546 2.834-3.098-1.973-19.151-7.738-4.437 27.939-2.936 10.971 2.181 1.034h7.283l-.864 3.931 1.881 1.331-.187 2.491 5.518.664-.18 6.291 1.705.265 2.45 1.818 1.687-8.872 1.34-4.102-.419-4.404 1.775-2.917 3.155 1.036 4.716.526-2.253-3.301.997-1.862-.513-2.494 19.604 2.429 2.609.323z" transform="scale(18.048832991813473) translate(-571.6205139160156 -219.13947296142578)"></path>
</svg>
