<?xml version="1.0" standalone="no"?>
<!DOCTYPE svg PUBLIC "-//W3C//DTD SVG 20010904//EN"
 "http://www.w3.org/TR/2001/REC-SVG-20010904/DTD/svg10.dtd">
<svg version="1.0" xmlns="http://www.w3.org/2000/svg"
 width="1024.000000pt" height="1024.000000pt" viewBox="-512 -512 1024 1024"
 preserveAspectRatio="xMidYMid meet">
  <path d="M360.859 267.186l.536-.255 1.409.215 1.02-.683.626.181s-.256 2.251.215 2 2.167-1.084 2.167-1.084l1.14 2.487 2.066.522-.066 2.722 1.476 1.125-1.026 2.206 6.227.789.508-1.062.693.1.014.841 1.629.27 3.185.427-.059.41 1.39.241v-.383l.872.249.02.657 2.934.228-1.8 11.744-11-1.553-2.822-.14-10.673-1.628-.1.7-.447-.086-.394-.763-1.782-.244-.7.2.231-.932-.753-.257 1.4-7.086.489-5.225.884-3.667z" transform="scale(33.86241062463102) translate(-372.7150115966797 -278.79795837402344)"></path>
</svg>
