<?xml version="1.0" standalone="no"?>
<!DOCTYPE svg PUBLIC "-//W3C//DTD SVG 20010904//EN"
 "http://www.w3.org/TR/2001/REC-SVG-20010904/DTD/svg10.dtd">
<svg version="1.0" xmlns="http://www.w3.org/2000/svg"
 width="1024.000000pt" height="1024.000000pt" viewBox="-512 -512 1024 1024"
 preserveAspectRatio="xMidYMid meet">
  <path d="M264.586 289.12l-1.492.849-5.802-8.41-1.216-3.808-.089-1.6 1.636-2.455 2.1-2.242 1.156-.925 1.809-.96 1.927-.499 6.694 1.621 1.282 1.368 3.825.498.029-1.245 4.477.547 2.382.076.018 1.239 4.678 4.265-2.293 6.634-2.068 3.373-2.509-1.191-2.96-2.28-1.501-.161-1.521-.906-3.655-.682-3.712-.201-2.039.352-1.929 1.509.681 2.088-1.213.654 1.305 2.492z" transform="scale(31.98698954482949) translate(-271.99349212646484 -279.5195007324219)"></path>
</svg>
