<?xml version="1.0" standalone="no"?>
<!DOCTYPE svg PUBLIC "-//W3C//DTD SVG 20010904//EN"
 "http://www.w3.org/TR/2001/REC-SVG-20010904/DTD/svg10.dtd">
<svg version="1.0" xmlns="http://www.w3.org/2000/svg"
 width="1024.000000pt" height="1024.000000pt" viewBox="-512 -512 1024 1024"
 preserveAspectRatio="xMidYMid meet">
  <path d="M413.715 198.79l.64 1.614 3.198.425 2.494-.011 1.498-1.354.538-.01v1.364l.774-.579.696-1.693 1.165-1.117 1.503-.611 4.728 3.001.889-1.689 1.036-1.091 1.133.182 1.441.294 2.8.162 1.133.151.592-.234.591.461v1.589l.813.336.446-3.48 1.495-1.639.488-2.001 1.479.448.709.997 1.79-.446.923.546.781.96 1.384-.306 1.147-.017.268-3.267h-3.506l.235-1.41 1.768-3.895-1.691-.263-.795.927-1.755 1.136-1.541.142-.712-1.601-.83.89-1.216 1.708-.771-1.566-.889.356-2.372.356 2.49-20.209-2.727-2.846-1.957-.036-1.068-.712-.682-1.779-1.393.285-.89-.498.164-1.672-6.155-1.01-.248.906-.372.486-.408-.61-.504.723-.538 2.216-1.071 2.27 1.017 1.201.911.372.663.984.258.587-.838.62-.341.992.311.998-1.756.25-.991.794.203 1.283-1.314.645h-.791l-.484.866.562.907.395.438-10.236-1.351.544 1.588.712 2.933 1.119 1.702.918 2.976-.106 2.399-.982 2.231.191 2.327-.373 2.178 1.996 2.192-1.295 1.171.569 1.438z" transform="scale(24.45954248108736) translate(-431.3545227050781 -180.45352935791016)"></path>
</svg>
