<?xml version="1.0" standalone="no"?>
<!DOCTYPE svg PUBLIC "-//W3C//DTD SVG 20010904//EN"
 "http://www.w3.org/TR/2001/REC-SVG-20010904/DTD/svg10.dtd">
<svg version="1.0" xmlns="http://www.w3.org/2000/svg"
 width="1024.000000pt" height="1024.000000pt" viewBox="-512 -512 1024 1024"
 preserveAspectRatio="xMidYMid meet">
  <path d="M289.683 282.092l.012-.794.518-.478 2.541-.84 1.435 4.093 1.025-1.743 1.144-.759 2.166-.952 1.795-.47 1.272-.759 1.105-1.414.184-1.517-.184-.629-.795.281-.321-1.053.675-1.057-3.568 1.16-2.329-1.863-4.554 2.627-.586-.47-1.035 1.04-2.183-1.756-1.886-1.613v-1.102l-2.81-.089.018 1.239 4.678 4.265-2.293 6.634 4.08-1.506-.104-.475z" transform="scale(52.308898197413114) translate(-293.0919952392578 -278.00401306152344)"></path>
</svg>
