<?xml version="1.0" standalone="no"?>
<!DOCTYPE svg PUBLIC "-//W3C//DTD SVG 20010904//EN"
 "http://www.w3.org/TR/2001/REC-SVG-20010904/DTD/svg10.dtd">
<svg version="1.0" xmlns="http://www.w3.org/2000/svg"
 width="1024.000000pt" height="1024.000000pt" viewBox="-512 -512 1024 1024"
 preserveAspectRatio="xMidYMid meet">
  <path d="M397.173 184.674l-.767-1.898 1.377.022.021-.633-.887-.722.367-.883-.448-.722 1.442-1.067.207-.373.827.914.25-.207-2.2-2.799-1.04-1.143 1.264-1.256 2.661.437-1.245-5.01 3.779.399 1.532.57.609.977 2.884 1.904.233-2.532-.251-.509 1.064-.969 3.106-1.339.366-.802-4.76-.812.914-2.74-10.2-1.537.448-1.346 1.507-.825 9.262-1.58 2.036-1.032-7.569-3.355-2.876-1.153-3.682 2.52-3.381-.32-.57-.31-.852.675-1.122.46-.057.456-1.036.351.379.584-.368 1.019-.053 1.104-.902.647-.546 1.03-21.156-2.684-.268.468 6.409.668 7.597 2.853 1.471 1.342.786 2.386-.263 1.658-1.223 4.419-1.605 3.772 1.302.558.252 1.649 2.003.571.871-1.867 1.034.231-.607 1.649.204.347-.338.629-.555-.271-.286.531.556.271-.716.621-1.193 2.365v.883l1.933.372 11.205 1.587.864-1.203z" transform="scale(22.83058608681689) translate(-389.89794921875 -169.26505279541016)"></path>
</svg>
