<?xml version="1.0" standalone="no"?>
<!DOCTYPE svg PUBLIC "-//W3C//DTD SVG 20010904//EN"
 "http://www.w3.org/TR/2001/REC-SVG-20010904/DTD/svg10.dtd">
<svg version="1.0" xmlns="http://www.w3.org/2000/svg"
 width="1024.000000pt" height="1024.000000pt" viewBox="-512 -512 1024 1024"
 preserveAspectRatio="xMidYMid meet">
  <path d="M302.638 256.299l2.371 6.599 2.117 1.807 1.708 1.305 1.653 1.087 1.882 1.111 2.176.575-.778 5.169-1.051-1.571-.947-.522-.855 5.865-3.206-.5-.212 1.228-1.29-.199-.284 1.66 1.102.067 1.624 6.427 3.095.492-.402 4.039-1.659-.132.689 2.842h.685l-.009.775-.663.423.277.814-1.582-.475-1.028-.957-.32-1.027-.666-3.202-1.188-.189-.921-.903-1.411-.049-1.384-1.072-.26-2.438.814-1.738-.182-1.768-.952-.662-1.262-1.031 1.272-.759 1.105-1.414.184-1.517-.184-.629-.795.281-.321-1.053.675-1.057.46-2.331-1.294-3.81-.692-2.102-1.539.035-3.664.68-2.913-6.927-.708-1.828.404-2.91.485-3.943.298-1.15 1.123.24-.241 1.668.467 1.362.268.079.648 2.184 7.281 1.051z" transform="scale(22.28751413127372) translate(-303.2249755859375 -272.6875)"></path>
</svg>
