<?xml version="1.0" standalone="no"?>
<!DOCTYPE svg PUBLIC "-//W3C//DTD SVG 20010904//EN"
 "http://www.w3.org/TR/2001/REC-SVG-20010904/DTD/svg10.dtd">
<svg version="1.0" xmlns="http://www.w3.org/2000/svg"
 width="1024.000000pt" height="1024.000000pt" viewBox="-512 -512 1024 1024"
 preserveAspectRatio="xMidYMid meet">
  <path d="M422.064 346.038l.414.059.492-1.418-.453-.584.618-5.504.628.172.507-3.226.381-.825-.072-1.893 5.771.744-.568 4.222 3.83 3.497 5.091 5.909 21.36 3.266.633 2.077-.235 1.358 1.055.45.403 2.567 1.302.839.957 1.436h2.082l.947 1.24 1.438.119.644 1.08-.93 1.362-17.115-1.953-6.162-.9-17.875-2.692-5.963-4.599.82-6.803z" transform="scale(21.313359647038947) translate(-445.2665100097656 -347.9019012451172)"></path>
</svg>
