<?xml version="1.0" standalone="no"?>
<!DOCTYPE svg PUBLIC "-//W3C//DTD SVG 20010904//EN"
 "http://www.w3.org/TR/2001/REC-SVG-20010904/DTD/svg10.dtd">
<svg version="1.0" xmlns="http://www.w3.org/2000/svg"
 width="1024.000000pt" height="1024.000000pt" viewBox="-512 -512 1024 1024"
 preserveAspectRatio="xMidYMid meet">
  <path d="M281.9 64.341l3.334-23.848 3.16-25.677-41.328-6.1-1.985.638-2.41-2.268-.571 1.562-3.474.568-1.91-1.276V6.522h-.567l-1.063.85.354.993-1.134.213-1.985-1.489-.85.921 1.7 1.7-1.7.212-.993.709 1.134 1.418.355 1.134-1.134.922 3.119.425.425 1.418-.992 1.843-1.914.922v2.2l.425.922-1.063.567.425 1.772-1.489 1.205-.85 1.064-1.276-.5V28l-1.489-.213-.355-1.63-.638-.638-1.276 1.134-.779.426V28l1.205 1.347 1.276-.78.071 1.347-.284.993-1.914-.638-.921 1.559v1.489l-.284 1.134-1.063-.851v-1.771l-.78.071v1.63l-.922 1.135.922.766.213 1.289 1.134-.283 1.063.851.284 1.063 1.985.638s-.142.567-.355.567-2.056-.425-2.056-.425l-.425.567.071 1.772 1.489.638-.426.567h-1.347l.071 1.418-.354 1.347-1.985-.426-1.134-.07 1.134 1.417v1.773l.78 2.693 1.134 1.914 1.489 2.623 2.2.355 5.523-.919h1.489l-.283 3.474 5.425.992.458 1.56-.458 5.813 3.434 14.085 7.145.912 1.133-8.911 1.608.242.372-3.021-1.485-.212 1.61-9.8z" transform="scale(13.632610666789365) translate(-253.51699829101562 -44.07900285720825)"></path>
</svg>
