<?xml version="1.0" standalone="no"?>
<!DOCTYPE svg PUBLIC "-//W3C//DTD SVG 20010904//EN"
 "http://www.w3.org/TR/2001/REC-SVG-20010904/DTD/svg10.dtd">
<svg version="1.0" xmlns="http://www.w3.org/2000/svg"
 width="1024.000000pt" height="1024.000000pt" viewBox="-512 -512 1024 1024"
 preserveAspectRatio="xMidYMid meet">
  <path d="M361.548 369.122l-1.31 8.356-.914-1.218-1.62.921-3.711-.553-1.586-1.151-4.347-.335-1.118.335-2.493-.579v-.986l-1.937-.062-.107.692.015.863h.618l-.236 2.466h.463l-.306 2.251-1.779-.258-.231 1.758-.749 4.965 2.087.289.177-.971 3.773.523-.214 2.073 3.125.403v-.773l9.182 1.546 7.303 1.349-.544-.798 18.273 2.569.513-5.73.614-3.989-6.142-.992.3-1.883-6.062-.89 1.279-8.41-12.316-1.781z" transform="scale(23.12083259834186) translate(-362.3445739746094 -380.9594421386719)"></path>
</svg>
