<?xml version="1.0" standalone="no"?>
<!DOCTYPE svg PUBLIC "-//W3C//DTD SVG 20010904//EN"
 "http://www.w3.org/TR/2001/REC-SVG-20010904/DTD/svg10.dtd">
<svg version="1.0" xmlns="http://www.w3.org/2000/svg"
 width="1024.000000pt" height="1024.000000pt" viewBox="-512 -512 1024 1024"
 preserveAspectRatio="xMidYMid meet">
  <path d="M365.369 241.511l-.31-2.003-.896-2.558.272-1.774.771.042-.287.827.705.392.519.283.776.154.508-.594-.377-.728-.172-.685.269-.18.646.139 1.017.027.942-.385-.119-.639.639-.177.679.091.865-.065.534-.862 1.289-1.179 1.035-.17.582.376.758.648 1.335.862 2.898.216 3.636-.11 2.154.055 1.829.969.931 1.399.965 2.486 1.582 2.128.977 2.248 1.085.809 1.435.82-.422 1.678-2.259 1.527-.02 1.034-.162 1.188.319.833-.319 1.288-.873-.084-1.12.964.008.682-.636-.007-2.24-.336-3.365.687-19.854-3.121 1.471-9.195z" transform="scale(33.093179267371376) translate(-379.3694763183594 -242.6470184326172)"></path>
</svg>
