<?xml version="1.0" standalone="no"?>
<!DOCTYPE svg PUBLIC "-//W3C//DTD SVG 20010904//EN"
 "http://www.w3.org/TR/2001/REC-SVG-20010904/DTD/svg10.dtd">
<svg version="1.0" xmlns="http://www.w3.org/2000/svg"
 width="1024.000000pt" height="1024.000000pt" viewBox="-512 -512 1024 1024"
 preserveAspectRatio="xMidYMid meet">
  <path d="M342.852 223.158l.251.5.057 1.3.248 1.262.383.2 1.3-.26 1.378.116.355.74a4.659 4.659 0 01-.2.93 12.1 12.1 0 01-1.281-.1l-.441-.065.371 1.083.576.931.082.453-.415.407-.075 1.067-.355 1.228 1.08.109.435.447 1.018-.215.131.717-.363.639-.512.763.782 1.214 1.182.688.109.88 3.068-1.086-.471 1.5-.728.963-1.076-.839-.118 1.059.058 1.573-1.9.441-3.452.123-2.512-.493-.88-1.916-2.108-.168-2.61.2-1.141-.357.49-2.98-.8.194.389-3.127 3.6-.145 1.552-10.305z" transform="scale(53.621030090927974) translate(-343.39195251464844 -232.37750244140625)"></path>
</svg>
