<?xml version="1.0" standalone="no"?>
<!DOCTYPE svg PUBLIC "-//W3C//DTD SVG 20010904//EN"
 "http://www.w3.org/TR/2001/REC-SVG-20010904/DTD/svg10.dtd">
<svg version="1.0" xmlns="http://www.w3.org/2000/svg"
 width="1024.000000pt" height="1024.000000pt" viewBox="-512 -512 1024 1024"
 preserveAspectRatio="xMidYMid meet">
  <path d="M526.36 267.507l.694-4.487-3.516-.142-2.425 1.225-2.825 1.652-3.293-.444-5.896 2.278.173-1.612-7.067-1.385.105-1.184-.476-.061-.673 1.012-1.541 3.574-.513 4.691.637.707-.187 1.266-2.159 1.569h-1.093v1.04h-.949l-.238 2.446.885-.023 3.49-.061 2.151.259 1.473-.887 2.076.231 2.339-.779 2.12.254 1.039-1.857 4.247.154 4.198.592 5.345 3.206 1.879-13.234z" transform="scale(32.06412359923133) translate(-511.08595275878906 -271.8094940185547)"></path>
</svg>
