<?xml version="1.0" standalone="no"?>
<!DOCTYPE svg PUBLIC "-//W3C//DTD SVG 20010904//EN"
 "http://www.w3.org/TR/2001/REC-SVG-20010904/DTD/svg10.dtd">
<svg version="1.0" xmlns="http://www.w3.org/2000/svg"
 width="1024.000000pt" height="1024.000000pt" viewBox="-512 -512 1024 1024"
 preserveAspectRatio="xMidYMid meet">
  <path d="M437.9 369.043l-.69.718-1.112 7.071-4.722-.718.427 1.373-.332.998-.478 1.199.36.626-.282 1.753-.707 1.45.453 1.747-1.152.381-.059 2.545.176 1.852.962 1.204-.487.883h-1.217l-.715 1.526.902.634-.771 1.887 3.833.043.487-1.065 1.468.612 1.102 2.401 2.766-.032 1.967.952 2.726-.865 2.029.59.59-2.187 4.537.516.85-1.747.499 2.275.998.144 1.525-1.363.09-2.663-1.754-2.541 1.443-5.885-13.533-13.987-2.179-2.327z" transform="scale(34.0878731265575) translate(-441.1239318847656 -384.06300354003906)"></path>
</svg>
