<?xml version="1.0" standalone="no"?>
<!DOCTYPE svg PUBLIC "-//W3C//DTD SVG 20010904//EN"
 "http://www.w3.org/TR/2001/REC-SVG-20010904/DTD/svg10.dtd">
<svg version="1.0" xmlns="http://www.w3.org/2000/svg"
 width="1024.000000pt" height="1024.000000pt" viewBox="-512 -512 1024 1024"
 preserveAspectRatio="xMidYMid meet">
  <path d="M400.888 132.626l.311-2.12h.783l.415-1.032 1.139.158v.681l1.631 1.067 3.2-2.314.675-1.601.765.106-.091.703.963.22 1.122 1.936-.381 1.799 2.504.41-.469 2.727 1.379.161-.494 3.662-2.523-.344-.811 5.795-.507-.067-.772 4.342-3.11-.407-.454 3.066-2.201 2.232-2.876-1.153-3.682 2.52-3.381-.32-.57-.31-.852.675-1.122.46-1.022-.842-1.821-.057-.912.207-.566-.696-2.819-.235-1.511.494-.305-.391.825-.572.186-.717-.586.061-1.316.745-2.001.62-1.047-1.175.222-.428-.077-1.424-.954-.486.784-.275.526.272 1.12.38.191-.706-.89-.621-.093-.933 1.18-.234 1.09.275.014-.525-.795-.954-.883-.336.073-1.148-1.546-.623-.242-.724 1.024-.601 1.048-.453 1.464.453.867-.98 1.494.234-.418-1.426-1.954-1.144 1.117-1.015 1.479.899.991-1.536.257-.614.415-.1-.237 2.699 1.127-.629.907-1.28 1.228.511.859-.987 1.31-.378-.384-1.638.287-1.65 2.067 1.09.696-.943-1.534-1.599-1.71-.19.26-1.982 1.517 1.133 1.665-.878 6.742 1z" transform="scale(27.63159879771071) translate(-396.3045349121094 -141.571533203125)"></path>
</svg>
