<?xml version="1.0" standalone="no"?>
<!DOCTYPE svg PUBLIC "-//W3C//DTD SVG 20010904//EN"
 "http://www.w3.org/TR/2001/REC-SVG-20010904/DTD/svg10.dtd">
<svg version="1.0" xmlns="http://www.w3.org/2000/svg"
 width="1024.000000pt" height="1024.000000pt" viewBox="-512 -512 1024 1024"
 preserveAspectRatio="xMidYMid meet">
  <path d="M546.259 280.747l.97-2.865 2.189.294-.028-3.33 3.733-8.299 2.967-.219 3.78-.781 3.526-2.947 3.79-.371 2.491-2.256 2.305.558 1.298-4.016-.511-5.244-3.431-.432.507-3.08-6.449-.252-2.45-1.818-1.705-.265.18-6.291-4.272 2.98-1.657 10.177-3.174-1.008-2.261-.309-1.256 4.057-1.233.069-1.26 2.628-5.42 4.374 2.691 7.345-.569 2.28 1.833 1.485 2.729 1.845-4.672 12.607 4.577.646.784-4.293-.002-3.269z" transform="scale(20.823174404096815) translate(-556.0839538574219 -263.72103118896484)"></path>
</svg>
