<?xml version="1.0" standalone="no"?>
<!DOCTYPE svg PUBLIC "-//W3C//DTD SVG 20010904//EN"
 "http://www.w3.org/TR/2001/REC-SVG-20010904/DTD/svg10.dtd">
<svg version="1.0" xmlns="http://www.w3.org/2000/svg"
 width="1024.000000pt" height="1024.000000pt" viewBox="-512 -512 1024 1024"
 preserveAspectRatio="xMidYMid meet">
  <path d="M458.939 346.072l-.625-2.001 1.066-1.637.155-1.685.656-1.463-.662-1.69.43-3.318-.891-1.677h2.033l.807-2.643-1.949-1.257.152-1.779-2.193.416-1.176-2.117-.242-2.373h-2.337l-.472-1.614 12.358.035v.957l.761-.357.703-.32 2.556.015 4.078.309 2.762-.318 1.548.104-.037-.861 4.657-.029-.001 8.384-2.258.384.452 4.942-7.185 6.228-2.99 3.4-3.534 1.426-3.273-.136-.38 1.316-1.355 1.733-1.037-.739-2.027.677-.55-2.312z" transform="scale(34.846505580416256) translate(-468.38404846191406 -334.6075134277344)"></path>
</svg>
