<?xml version="1.0" standalone="no"?>
<!DOCTYPE svg PUBLIC "-//W3C//DTD SVG 20010904//EN"
 "http://www.w3.org/TR/2001/REC-SVG-20010904/DTD/svg10.dtd">
<svg version="1.0" xmlns="http://www.w3.org/2000/svg"
 width="1024.000000pt" height="1024.000000pt" viewBox="-512 -512 1024 1024"
 preserveAspectRatio="xMidYMid meet">
  <path fill-rule="evenodd" d="M65.053 270.968l-2.072 12.513 1.49 3.622 5.171 6.837-.386 4.014 3.935 1.409 4.219 5.002 1.75-1.238 5.164.811.961 2.028 3.054-.986-.779 1.859 9.261 1.145 2.928-20.435 29.181 3.875.591-3.441-2.584-1.623-2.7-.668.712-2.791-1.716-1.456-1.154-3.512 1.518-4.774-1.046-1.974 1.951-6.829 3.124-4.892-2.855-4.228-31.744-4.406-3.655 23.29-24.319-3.152z" transform="scale(15.389241107924871) translate(-96.2509994506836 -279.4070587158203)"></path>
</svg>
