<?xml version="1.0" standalone="no"?>
<!DOCTYPE svg PUBLIC "-//W3C//DTD SVG 20010904//EN"
 "http://www.w3.org/TR/2001/REC-SVG-20010904/DTD/svg10.dtd">
<svg version="1.0" xmlns="http://www.w3.org/2000/svg"
 width="1024.000000pt" height="1024.000000pt" viewBox="-512 -512 1024 1024"
 preserveAspectRatio="xMidYMid meet">
  <path d="M259.222 267.34l2.547-1.392 2.164-.756v-6.626h1.838v6.448l1.542.349.386.585 6.7-3.833.513 1.269 2.008-1.269 1.028-2.105.441-2.277 1.508.164 2.33 1.22 1.255 1.035 2.942-1.189 1.011 1.31 1.811.412 3.367-1.139-.708-1.828.404-2.91-13.897-1.999.73-1.398-3.369-1.15-5.015-.69-4.888-1.065-1.049 1.675-1.955-.442-1.265.672-1.601 3.265-1.087 3.962-.522 4.689.831 2.366v2.647z" transform="scale(29.922232090944437) translate(-275.501953125 -257.92296600341797)"></path>
</svg>
