<?xml version="1.0" standalone="no"?>
<!DOCTYPE svg PUBLIC "-//W3C//DTD SVG 20010904//EN"
 "http://www.w3.org/TR/2001/REC-SVG-20010904/DTD/svg10.dtd">
<svg version="1.0" xmlns="http://www.w3.org/2000/svg"
 width="1024.000000pt" height="1024.000000pt" viewBox="-512 -512 1024 1024"
 preserveAspectRatio="xMidYMid meet">
  <path d="M484.753 213.293l-5.567-.66-.742 1.495-.695 1.726 1.304 1.307.118 1.99-1.364 1.163-1.392 2.951.179 2.422.516 2.76.699.284 1.496.432 1.108-.194.457-.763.65.763-.65 1.178h1.421l1.26-8.495 9.007 1.183 1.197-.855 1.732-.542-.143-2.228-2.044-4.411-.662-6.256-.995-2.656-2.149 2.216-3.116-2.773.26-2.202-1.057-2.129-.828 12.294z" transform="scale(35.13107972707123) translate(-485.9509582519531 -215.572998046875)"></path>
</svg>
