<?xml version="1.0" standalone="no"?>
<!DOCTYPE svg PUBLIC "-//W3C//DTD SVG 20010904//EN"
 "http://www.w3.org/TR/2001/REC-SVG-20010904/DTD/svg10.dtd">
<svg version="1.0" xmlns="http://www.w3.org/2000/svg"
 width="1024.000000pt" height="1024.000000pt" viewBox="-512 -512 1024 1024"
 preserveAspectRatio="xMidYMid meet">
  <path d="M358.846 65.872l-4.816.591-2.433-1.757-3.059.879-4.869-3.821-8.592-.81-2.679-2.319-34.873-4.32 1.016 2.872-1.352 5.058.959 5.131-1.966 4.126-2.915 3.23-.097 5.032-1.624 5.213-1.425 2.531-.066 4.375-.567 2.631-2.922-.102 1.522 2.512 1.352 1.748 2.03 2.206 59.519 7.583 3.237-5.355 1.655-5.882 2.397-3.738-1.574-2.311 1.082-3.58-.714-2.796 1.159-2.665 2.715 1.175 3.315-1.178.76-7.566-3.338-3.897.612-4.246-3.449-.55z" transform="scale(13.052065221365684) translate(-325.7935791015625 -81.38800621032715)"></path>
</svg>
