<?xml version="1.0" standalone="no"?>
<!DOCTYPE svg PUBLIC "-//W3C//DTD SVG 20010904//EN"
 "http://www.w3.org/TR/2001/REC-SVG-20010904/DTD/svg10.dtd">
<svg version="1.0" xmlns="http://www.w3.org/2000/svg"
 width="1024.000000pt" height="1024.000000pt" viewBox="-512 -512 1024 1024"
 preserveAspectRatio="xMidYMid meet">
  <path d="M455.879 225.291l-.37-2.503-1.889-.488.012-.671-2.469-.329.067-1.523-4.173-.644-.217 3.05-1.145.097-1.025-1.323.615-1.057-1.129-1.634.343-1.105-.046-1.351-1.372-.974.804-1.577-.56-1.717-1.768-.787-1.712-1.027 1.455-9.148.523-4.08 1.495-1.639.488-2.001 1.479.448.709.997 1.79-.446.923.546.781.96 1.384-.306 1.147-.017.434.871-1.679 1.626.121 1.931 3.492 3.266 1.014-2.405-.32-2.955 1.809-3.183 3.38.347 2.884-1.164 3.282 1.402-.783 3.291-4.534 1.322-2.984.261-.838 1.509 1.986 1.784 3.48-.668 2.201-1.091 1.915-.278 2.227-2.839 4.539.554 2.545 1.965 1.313-1.466-2.755-2.03.442-1.909 4.416-.438 2.325 2.559 2.715 1.811.935 1.884-.828 12.294-5.567-.66-1.437 3.221 1.304 1.307.118 1.99-1.364 1.163-7.198-.473.162-.79-1.599-.411.078-1.049-.76-.208-.372.766-.864-.461-.426 1.899-7.745-.877-1.619 9.188-1.887-.673.302-1.934z" transform="scale(22.389353817164196) translate(-462.71295166015625 -210.37904357910156)"></path>
</svg>
