<?xml version="1.0" standalone="no"?>
<!DOCTYPE svg PUBLIC "-//W3C//DTD SVG 20010904//EN"
 "http://www.w3.org/TR/2001/REC-SVG-20010904/DTD/svg10.dtd">
<svg version="1.0" xmlns="http://www.w3.org/2000/svg"
 width="1024.000000pt" height="1024.000000pt" viewBox="-512 -512 1024 1024"
 preserveAspectRatio="xMidYMid meet">
  <path d="M593.735 478.473l19.231.025 3.437-20.076 2.14-1.694-.027-3.822-5.97-1.052 1.125-6.289-.073-2.985-2.205-4.535 2.568-1.242.528-3.04-2.427-2.5 1.915-2.679-2.584-1.613-2.447-4.708-1.822-.014-.159 3.059-4.005 2.031.039-3.984-3.438-.032-2.97 3.477-3.75 5.879-1.263 1.46-.667 4.986-2.368 2.647-2.874 3.724-3.397 18.424-7.121-.144 2.447 1.878.406 2.243-2.026 1.511-.835 2.932.742 3.32 1.975.979 1.423-.979 1.446.837 13.006 1.976z" transform="scale(18.204770376205737) translate(-596.8430786132812 -450.3734893798828)"></path>
</svg>
