<?xml version="1.0" standalone="no"?>
<!DOCTYPE svg PUBLIC "-//W3C//DTD SVG 20010904//EN"
 "http://www.w3.org/TR/2001/REC-SVG-20010904/DTD/svg10.dtd">
<svg version="1.0" xmlns="http://www.w3.org/2000/svg"
 width="1024.000000pt" height="1024.000000pt" viewBox="-512 -512 1024 1024"
 preserveAspectRatio="xMidYMid meet">
  <path d="M287.767 201.351l-1.161-.148-.852 5.918.613.558-.613 4.757-12.959-1.825.455-1.638.563-.272.217-.588.355-.006-.133-.509-.562-.213.078-.954.677-.419 1.164.147.619-.253.609.145.27-.517.663-.255.179-.455-.912-1.206-1.225-.352-.887-1.309-.227-1.957-.687-.383-.59-1.979.551-1.647 1.109.802.879-.403 3.803.922 5.052.48 3.192.404-.24 3.155z" transform="scale(62.26813888321859) translate(-280.4009704589844 -204.2135009765625)"></path>
</svg>
