<?xml version="1.0" standalone="no"?>
<!DOCTYPE svg PUBLIC "-//W3C//DTD SVG 20010904//EN"
 "http://www.w3.org/TR/2001/REC-SVG-20010904/DTD/svg10.dtd">
<svg version="1.0" xmlns="http://www.w3.org/2000/svg"
 width="1024.000000pt" height="1024.000000pt" viewBox="-512 -512 1024 1024"
 preserveAspectRatio="xMidYMid meet">
  <path d="M458.255 296.111l1.274.187.714-1.059.79-.299.066-2.49 1.474-1.115.279-1.647.669-1.684.782-2.754 1.426-2.863 1.787-1.543 4.621-.052 3.691 1.128 2.004.465 1.414-.658 1.765.25.847-.642.257 4.89 1.282-.353.112.649 5.028-1.398-1.812 3.154.671.254-1.592 3.656-5.86 13.504-19.248-7.482-4.039-.474 1.598-1.624z" transform="scale(32.12044677421208) translate(-472.59698486328125 -293.24151611328125)"></path>
</svg>
