<?xml version="1.0" standalone="no"?>
<!DOCTYPE svg PUBLIC "-//W3C//DTD SVG 20010904//EN"
 "http://www.w3.org/TR/2001/REC-SVG-20010904/DTD/svg10.dtd">
<svg version="1.0" xmlns="http://www.w3.org/2000/svg"
 width="1024.000000pt" height="1024.000000pt" viewBox="-512 -512 1024 1024"
 preserveAspectRatio="xMidYMid meet">
  <path d="M445.384 280.606l.739.033.203-1.323-.267-.039.003-.419-.358-.054.151-1.055-.128-1.736.722-.617 1.301.299-.031-.187 1.255.188-.237-.781 4.127.37 3.762-.126 1.777-.442 2.224.305 1.562-.537h1.936l1.21.705-.002.996 1.509-.002.201 1.722-.463.102-.043.817.912-.201.067 2.22-1.787 1.543-1.426 2.863-.782 2.754-.156.393-1.465-.721-1.936-.319-.051.316-4.354-.084.12-.603-4.37.331-4.185.113-2.755-.399 1.015-6.425z" transform="scale(44.23898818823412) translate(-455.9424591064453 -281.4409637451172)"></path>
</svg>
