<?xml version="1.0" standalone="no"?>
<!DOCTYPE svg PUBLIC "-//W3C//DTD SVG 20010904//EN"
 "http://www.w3.org/TR/2001/REC-SVG-20010904/DTD/svg10.dtd">
<svg version="1.0" xmlns="http://www.w3.org/2000/svg"
 width="1024.000000pt" height="1024.000000pt" viewBox="-512 -512 1024 1024"
 preserveAspectRatio="xMidYMid meet">
  <path d="M306.528 293.139l-1.007.434-.799-1.469-2.885 1.295-2.615-2.802-2.02-2.357-1.676-1.257-.546-.717-3.888 5.122-7.453-3.942 2.068-3.373 4.08-1.506-.092-1.269.518-.478 2.541-.84 1.435 4.093 1.025-1.743 1.144-.759 2.166-.952 1.795-.47 1.262 1.031.952.662.182 1.768-.814 1.738.26 2.438 1.384 1.072 1.411.049.921.903 1.188.189.479 2.303-.916.274-.1.563z" transform="scale(42.83628360384927) translate(-295.5915222167969 -286.7765197753906)"></path>
</svg>
