<?xml version="1.0" standalone="no"?>
<!DOCTYPE svg PUBLIC "-//W3C//DTD SVG 20010904//EN"
 "http://www.w3.org/TR/2001/REC-SVG-20010904/DTD/svg10.dtd">
<svg version="1.0" xmlns="http://www.w3.org/2000/svg"
 width="1024.000000pt" height="1024.000000pt" viewBox="-512 -512 1024 1024"
 preserveAspectRatio="xMidYMid meet">
  <path d="M363.544 234.809l-.7-.9-.651-.077-.539.98-.986.1-1.571 1.011-.361-1.121-1.02 1.5.829.824.823.18-.637.739-1.667-.533-.528-1.922-1.726-.763-.733-.9-.9.84-1.85-.664-1.4 1.765-1.088 1.445.109.88 1.149-.3 1.919-.791-.471 1.5a7.256 7.256 0 01-.728.963 7.606 7.606 0 01-1.076-.839l-.118 1.059.058 1.573-1.9.441.717 1.451-.717 1.334-.564 1.554 5.775 2.631-.256 1.7.344.049-.066.5 2.879-1.5 8.01 1.174 1.471-9.195-.31-2-.9-2.558.272-1.774z" transform="scale(56.397036479272835) translate(-356.2955017089844 -242.42501068115234)"></path>
</svg>
