<?xml version="1.0" standalone="no"?>
<!DOCTYPE svg PUBLIC "-//W3C//DTD SVG 20010904//EN"
 "http://www.w3.org/TR/2001/REC-SVG-20010904/DTD/svg10.dtd">
<svg version="1.0" xmlns="http://www.w3.org/2000/svg"
 width="1024.000000pt" height="1024.000000pt" viewBox="-512 -512 1024 1024"
 preserveAspectRatio="xMidYMid meet">
  <path d="M435.431 255.012l-.604-.081-.411 2.96h-.849l.032.799.426.057-.09 1.027-.306 4.969-1.106-.043-.479 2.913 1.291.148-.303 1.834.942.352-.36 2.495.846.122 1.135.165.043.6 3.061.471-.162.979 2.127.239 1.378-1.522v1.837h2.9v1.298l.785-.618.722-.617 1.301.299-.031-.187 1.255.188-.237-.781-.755-2.409-1.257-.02-.204-7.172 1.106-.206-.98-2.957-.796-4.404.424-2.476.763-.459.699-2.671-1.515-1.09-.555 1.316-4.504 1.26-2.714-1.012-2.167-.23-.651-.116-.2 2.743z" transform="scale(40.03127156765256) translate(-440.5090026855469 -263.84107208251953)"></path>
</svg>
