<?xml version="1.0" standalone="no"?>
<!DOCTYPE svg PUBLIC "-//W3C//DTD SVG 20010904//EN"
 "http://www.w3.org/TR/2001/REC-SVG-20010904/DTD/svg10.dtd">
<svg version="1.0" xmlns="http://www.w3.org/2000/svg"
 width="1024.000000pt" height="1024.000000pt" viewBox="-512 -512 1024 1024"
 preserveAspectRatio="xMidYMid meet">
  <path d="M392.274 227.826l-.046.361 6.37 1.083.197-.221.994.807 1.043.316.2-1.319 1.351.246-.284 1.868 1.212.909-.078.521 1.46 1.216 5.593-9.897.565.089.557.847 1.669 1.132-.137.728-.133 1.273.211.82 1.115.622.745 1.434 1.375.998 1.917.081 1.434.869-.363 2.96-.448 4.755-.744 4.446-.323 3.259-1.385-.259-.82.7-1.523.036-.251-1.207-.939-.295-1.741-.021-.751-.541-1.698.736-1.465 1.175-1.259-.059-1.196.804-.715-.706-1.212-.307-1.124-.595-1.695-.96-1.018.381-.639-.369-.544-.417-.866.049-1.448-.613-.321-.929-.275-.259-1.435-.82-1.085-.809-.977-2.248-1.582-2.128-.965-2.486h2.002l-.006-.647.276-.214.275-1.093-.285.03.625-4.724-1.423-1.773 2.013.365z" transform="scale(33.23915858086054) translate(-404.20045471191406 -236.40699005126953)"></path>
</svg>
