<?xml version="1.0" standalone="no"?>
<!DOCTYPE svg PUBLIC "-//W3C//DTD SVG 20010904//EN"
 "http://www.w3.org/TR/2001/REC-SVG-20010904/DTD/svg10.dtd">
<svg version="1.0" xmlns="http://www.w3.org/2000/svg"
 width="1024.000000pt" height="1024.000000pt" viewBox="-512 -512 1024 1024"
 preserveAspectRatio="xMidYMid meet">
  <path d="M318.818 367.66h1.409l1.384-1.459 3.677.427v-.427l5.613.996.277.857 2.805.017 2.688.35.688-1.313.224-1.463-.728-.25.155-2.324.959-.142.369-2.652-.168-.622.358-1.985-.985-.518-.214-.53-6.58-.944-.164-.625h-1.912l-.959 1.044-1.122.23-.158-1.274-1.297-.153-2.024-.119-.444.355-1.631-.427h-1.731v-.815l-1.492.009-.068 2.372-.275 1.395 3.541 4.802.116 1.797-4.437-1.298.408 1.949-.014 1.531 1.732 1.209z" transform="scale(46.8951044064395) translate(-327.61000061035156 -361.1575012207031)"></path>
</svg>
