<?xml version="1.0" standalone="no"?>
<!DOCTYPE svg PUBLIC "-//W3C//DTD SVG 20010904//EN"
 "http://www.w3.org/TR/2001/REC-SVG-20010904/DTD/svg10.dtd">
<svg version="1.0" xmlns="http://www.w3.org/2000/svg"
 width="1024.000000pt" height="1024.000000pt" viewBox="-512 -512 1024 1024"
 preserveAspectRatio="xMidYMid meet">
  <path d="M291.403 107.735l1.191 1.298.436 2.215 1.739.823-.641 3.043 1.591 2.271 2.035-.06.986 1.34 1.168 1.613 1.088-.403 1.086 2.291-.277 1.243 1.342 1.279.846 1.494.848 1.307 1.008 1.925-1.066 1.872.647 1.633 40.914 5.428.507-.549.124-1.138 4.603-5.981 10.692-1.479 4.198-.635-.473-1.417-.745-1.374-1.08-2.099.15-2.127.577-1.884-1.06-2.222-.632-1.882 1.283-2.723.761-2.806-14.26-1.57-59.519-7.583.474 2.652 1.05 1.539-.779 1.146-.812 1.52z" transform="scale(13.641504701123822) translate(-328.9355010986328 -119.61248397827148)"></path>
</svg>
