<?xml version="1.0" standalone="no"?>
<!DOCTYPE svg PUBLIC "-//W3C//DTD SVG 20010904//EN"
 "http://www.w3.org/TR/2001/REC-SVG-20010904/DTD/svg10.dtd">
<svg version="1.0" xmlns="http://www.w3.org/2000/svg"
 width="1024.000000pt" height="1024.000000pt" viewBox="-512 -512 1024 1024"
 preserveAspectRatio="xMidYMid meet">
  <path d="M470.609 219.841l.162-.79-1.6-.411.078-1.049-.76-.208-.372.766-.864-.461-.426 1.9-7.745-.877-1.619 9.188-1.887-.673-3.1 2.166-2.659 1.285.3.931-.3 1.186 1.912.207.76 1.462-.083 1.768 1.122.588.7 2.076a6.985 6.985 0 011.679.452c.219.206 1.773 2.606 1.773 2.606l7.866.869.734-.3.352-1.463 1.94.356 1.883.827.147 2.037h.873v-3.6l2.415.19v1.124l5.791.8.773-.72.091-2.08-1.57-.993-.648-1.533.712-1.636-.394-1.772-.815-3.4-.021-1.93-.7-.284-.516-2.76-.179-2.422 1.392-2.951z" transform="scale(33.3246584797819) translate(-465.1809844970703 -230.83103942871094)"></path>
</svg>
