<?xml version="1.0" standalone="no"?>
<!DOCTYPE svg PUBLIC "-//W3C//DTD SVG 20010904//EN"
 "http://www.w3.org/TR/2001/REC-SVG-20010904/DTD/svg10.dtd">
<svg version="1.0" xmlns="http://www.w3.org/2000/svg"
 width="1024.000000pt" height="1024.000000pt" viewBox="-512 -512 1024 1024"
 preserveAspectRatio="xMidYMid meet">
  <path fill-rule="evenodd" d="M148.915 353.852l-9.756-1.325-1.913-2.628-4.718-3.308-1.983-3.451-1.172-.44 2.233-15.116-1.385.105-4.016 3.481-2.928.022 3.788-8.091v-8.726l17.821-5.632 9.749-2.607 1.713 5.029-2.173 1.905.726 2.985.142 3.791 2.865.494v.775l4.292.441.587-3.802 3.801.58 2.799.384 4.993 8.056 1.185 3.729 5.308-.888 4.146.633 3.807-1.001-.325 1.991-2.287 4.617-.555 3.198 1.019 9.286-2.121 1.775-1.457 2.417-10.667 1-4.709 1.913-6.219 5.217-5.286 1.657-5.833.079-2.566 1.564.537-7.076.558-3.033z" transform="scale(15.621902133213712) translate(-156.05150604248047 -335.0484619140625)"></path>
</svg>
