<?xml version="1.0" standalone="no"?>
<!DOCTYPE svg PUBLIC "-//W3C//DTD SVG 20010904//EN"
 "http://www.w3.org/TR/2001/REC-SVG-20010904/DTD/svg10.dtd">
<svg version="1.0" xmlns="http://www.w3.org/2000/svg"
 width="1024.000000pt" height="1024.000000pt" viewBox="-512 -512 1024 1024"
 preserveAspectRatio="xMidYMid meet">
  <path d="M308.547 215.557l-2.133-.23-.239 1.686-1.789-.251-.416 2.688-.626-.088-.119 1.178.639.432-.89 5.355-.51.178-.215.932.703.223-1.045 4.19.168 1.514 4.997.617.887-5.687 2.795.424-.038.457 2.247.215-.393-1.353-.278-.794-1.02-.874.17-2.475.731-.843-.114-.539-.868-.814-.604-.914-.754-.143-.286-1.057.948.205.092-.697-.967-.878-.693-1.375-.38-1.282z" transform="scale(54.894372147771506) translate(-307.43499755859375 -224.65401458740234)"></path>
</svg>
