<?xml version="1.0" standalone="no"?>
<!DOCTYPE svg PUBLIC "-//W3C//DTD SVG 20010904//EN"
 "http://www.w3.org/TR/2001/REC-SVG-20010904/DTD/svg10.dtd">
<svg version="1.0" xmlns="http://www.w3.org/2000/svg"
 width="1024.000000pt" height="1024.000000pt" viewBox="-512 -512 1024 1024"
 preserveAspectRatio="xMidYMid meet">
  <path d="M233.351 91.637l.823 1.18 1.185 4.53-.761.393-.377 3.188 1.107 3.587-1.166 4.25-3.672 4.252-3.389-1.593-3.278 2.711-11.909-1.48-1.643 11.6 5.9.82 1.534 2.06-.262 1.717a10.785 10.785 0 011.036 1.577c.08.321-.031 2.857-.031 2.857l2.332 1.547 1.285 1.336 2.142-.116 1.781 2.07.229 1.63 1.921 2.065 5.774.429 1.06-6.419 23.7 2.717 2.974-18.77.919-5.722 2.232-4.745-.456-5.11-1.227-7.283-8.074-.739-.166 2.055-6.2-.949.689-3.4-5.7-.941z" transform="scale(18.780025952750545) translate(-237.53398895263672 -116.94199752807617)"></path>
</svg>
