<?xml version="1.0" standalone="no"?>
<!DOCTYPE svg PUBLIC "-//W3C//DTD SVG 20010904//EN"
 "http://www.w3.org/TR/2001/REC-SVG-20010904/DTD/svg10.dtd">
<svg version="1.0" xmlns="http://www.w3.org/2000/svg"
 width="1024.000000pt" height="1024.000000pt" viewBox="-512 -512 1024 1024"
 preserveAspectRatio="xMidYMid meet">
  <path d="M384.425 140.597l-1.479-.899-1.117 1.015 1.954 1.144.418 1.426-1.494-.234-.867.98-1.464-.453-1.048.453-1.024.601.242.724 1.546.623-.073 1.148.883.336.795.954-.014.525-1.09-.275-1.18.234.093.933.89.621-.191.706-1.12-.38-.526-.272-.784.275.954.486.077 1.424-10.124-.813-.146.563-17.808-1.945.921-1.59.321-1.219-.052-1.279-2.362-.642-2.331-.261-.616-.629 1.326-1.713-1.007-.842-1.023.468-.061-1.452.595-1.246-.095-1.745.507-.549.124-1.138 4.603-5.981 14.89-2.114 10.127.969.486 2.522 8.335 7.005-.991 1.536z" transform="scale(25.87688855127844) translate(-365.63002014160156 -140.62844848632812)"></path>
</svg>
