<?xml version="1.0" standalone="no"?>
<!DOCTYPE svg PUBLIC "-//W3C//DTD SVG 20010904//EN"
 "http://www.w3.org/TR/2001/REC-SVG-20010904/DTD/svg10.dtd">
<svg version="1.0" xmlns="http://www.w3.org/2000/svg"
 width="1024.000000pt" height="1024.000000pt" viewBox="-512 -512 1024 1024"
 preserveAspectRatio="xMidYMid meet">
  <path d="M348.093 196.313l.821-.952-1.24-1.262.718-.254.719-.191-.573-1.162-.925-.208.433-1.091-.844-1.125-.648-1.052-.475-.752-.936-.243.176-.852-.141-.938-2.018.909-4.393-4.824-.512.098-1.593-.381.06-.37 1.023-.421 1.377-.734-.202-.884.597-.543 1.044-.048 1.3-.204 1.227-.272.954.198.812.185.757-1.705-.129-1.148-.923-1.294.614-.788.315-.472-.013-1.249.606-.311-.761-.981 1.693-1.183.026-1.03 1.831-.101.435-.646-2.074-.279-3.458-.462-40.663-5.109-.316.737-.831.292.113.34 1.205.039.471-.095 1.009.802 1.082 1.128.877-.821.947.395-.333 1.418.372.781.822.208.373.483-.269.625-.559.794.026.449.328.506.762.14.844 1.098-.215.96-1.598.267-.777.544 1.29 1.513.265.567-1.376.535-.814 1.265.044.962.774.458.147.902-1.279.744.623.524 1.108.124.574.123.162.935-.619.837-1.123.03.218.92.202 1.109-.37.47 1.137.677.281.877 1.967.792.1-1.086 1.607.158-.623 4.874 2.415.555 7.487 1.11.205.577.397.049.428-.729 6.07.671.094-.652.85.139-.095.658 2.534.437 2.494.162-.017.343.816.11.06-.375 7.725 1.087 4.118.244v.663l.774-.318z" transform="scale(21.62983762682081) translate(-325.63401794433594 -179.40654754638672)"></path>
</svg>
