<?xml version="1.0" standalone="no"?>
<!DOCTYPE svg PUBLIC "-//W3C//DTD SVG 20010904//EN"
 "http://www.w3.org/TR/2001/REC-SVG-20010904/DTD/svg10.dtd">
<svg version="1.0" xmlns="http://www.w3.org/2000/svg"
 width="1024.000000pt" height="1024.000000pt" viewBox="-512 -512 1024 1024"
 preserveAspectRatio="xMidYMid meet">
  <path d="M378.703 211.236l.471.795 1.578-.207 1.216.82.76.476 1.32-.109.851-1.239-.444 4.484 1.625.758 1.048 1.134.789 1.09 1.982 1.019-.815 5.126.486.262-1.029.691 1.777 1.162 1.366 1.736-.358 3.072-.267 1.652.285-.03-.275 1.093-.276.214.006.647h-2.002l-.931-1.399-1.829-.969-2.154-.055-3.636.11-2.898-.216-1.335-.862-.758-.648-.582-.376-1.035.17-1.289 1.179-.534.862-.865.065-.679-.091-.639.177.119.639-.942.385-1.017-.027-.646-.139.063-1.432.218-1.034.479-1.17.612-1.163-.208-.615-.055-1.06.731-.907.798-.528.594.743.868.096.873.972 1.057.389.227-.627-.718-.69-.047-1.078-.708-.452-1.053-.486-.631-.492-.307-1.433.217-.254.514.429 1.671-.286.9.135.219-1.215 1.128-1.259.504-1.453-.972-1.081-.285-.788-.111-.924-2.517-.703.473-.651.515-.326.674.348 1.135.12.763.546.745-.01.445-.484-.694-.504-1.029-.338-.273-1.037.252-.755.753-.384.933.247.387 1.16.28.599.915-.731.36-.534-1.125-.579.771-2.346 1.215.574z" transform="scale(40.60276800488863) translate(-379.4155731201172 -223.27201080322266)"></path>
</svg>
