<?xml version="1.0" standalone="no"?>
<!DOCTYPE svg PUBLIC "-//W3C//DTD SVG 20010904//EN"
 "http://www.w3.org/TR/2001/REC-SVG-20010904/DTD/svg10.dtd">
<svg version="1.0" xmlns="http://www.w3.org/2000/svg"
 width="1024.000000pt" height="1024.000000pt" viewBox="-512 -512 1024 1024"
 preserveAspectRatio="xMidYMid meet">
  <path d="M360.752 188.35l-1.015-.873v-2.137l1.781-1.102.256-1.612-1.628-1.472 2.119.157.595-.868 1.384-.058.078-.547 1.158-1.652.647-1.392 2.516-.753 3.531.461.151-.506.894.117.044-.667-.326-.217.628-4.35 1.713.205 1.046-7.252-.669-.755-1.083.54-.84-.696.149-3.6-6.409-.668.268-.468 21.156 2.684.546-1.03.902-.647.053-1.104.368-1.019-.379-.584 1.036-.351.057-.456-1.022-.842-1.821-.057-.912.207-.566-.696-2.819-.235-1.511.494-.305-.391.825-.572.186-.717-.586.061-1.316.745-2.001.62-1.047-1.175.222-.428-10.124-.813-.146.563-17.808-1.945-.813.522.439.647-.309.979.186.965-.42 1.101v1.184l-.933.736 1.476.65.237 1.704.708-1.319 1.046.62.547-.972 1.227-.094.734-.485 1.112-.118.292.519.479.433-.056 1.216-.721.732 1.047.449v.825l-2.509-.46-3.303 1.275-1.49 3.69-5.931 1.995 3.458.462 2.074.279-.435.646-1.831.101-.026 1.03-1.693 1.183.761.981-.606.311.013 1.249-.929 1.26.923 1.294.129 1.148-.757 1.705-1.766-.383-1.227.272-1.3.204-1.044.048-.597.543.202.884 3.1-.866 8.711.504-.89 3.332-.332.705-.778.448-3.614 2.538-.176.852.936.243.475.752.648 1.052.844 1.125-.26.655 11.477 1.163 1.489-4.661z" transform="scale(19.482893027787473) translate(-365.19960021972656 -171.7539825439453)"></path>
</svg>
