<?xml version="1.0" standalone="no"?>
<!DOCTYPE svg PUBLIC "-//W3C//DTD SVG 20010904//EN"
 "http://www.w3.org/TR/2001/REC-SVG-20010904/DTD/svg10.dtd">
<svg version="1.0" xmlns="http://www.w3.org/2000/svg"
 width="1024.000000pt" height="1024.000000pt" viewBox="-512 -512 1024 1024"
 preserveAspectRatio="xMidYMid meet">
  <path d="M386.254 209.063l1.616-.122 3.606 3.562 4.313 1.653 1.298-.243.806.017.862-1.307 2.18-.623.86 1.523.616.803 1.427.531 1.819 1.624.88 2.149 1.149 1.057.319 2.211.557 1.178 1.724.64-5.593 9.897-1.46-1.216.078-.521-1.212-.909.284-1.868-1.351-.246-.2 1.319-1.043-.316-.994-.807-.197.221-6.37-1.083.046-.361-1.956-.328-1.777-1.162 1.029-.691-.486-.262.815-5.126-1.982-1.019-.789-1.09-1.048-1.134-1.625-.758.444-4.484 1.355-2.709z" transform="scale(39.64230001299576) translate(-397.3704528808594 -221.2770004272461)"></path>
</svg>
