<?xml version="1.0" standalone="no"?>
<!DOCTYPE svg PUBLIC "-//W3C//DTD SVG 20010904//EN"
 "http://www.w3.org/TR/2001/REC-SVG-20010904/DTD/svg10.dtd">
<svg version="1.0" xmlns="http://www.w3.org/2000/svg"
 width="1024.000000pt" height="1024.000000pt" viewBox="-512 -512 1024 1024"
 preserveAspectRatio="xMidYMid meet">
  <path d="M403.63 109.6l.412.811-3.3.488-2.757.815.959 1.313-4.055 1.091 1.69 1.4-1.378 2.436.319 2.89-3.242-1.009-1.844-.01.508 1.816 1.1 3.045.2 2.148 1.943 1.187-2.854 2.429 2.813 1.172a17.86 17.86 0 01-1.665.878c-.082-.031-1.517-1.133-1.517-1.133l-.26 1.982 1.71.19 1.534 1.6-.7.943-2.061-1.082-.287 1.65.384 1.638-1.31.378-.859.987-1.228-.511-.907 1.28-1.127.629.237-2.7-.415.1-.257.614-8.335-7-.486-2.522-10.127-.969-.468-1.426-1.825-3.473.15-2.127.577-1.884-1.692-4.1 1.283-2.723.761-2.806-14.26-1.57 3.237-5.355 1.655-5.882 39.636 5.366 2.369-.829 2.168 1.524.207 3.26 1.369.4 2.011-1.606.711 2.129z" transform="scale(19.189334541158118) translate(-377.6754455566406 -119.13949584960938)"></path>
</svg>
