<?xml version="1.0" standalone="no"?>
<!DOCTYPE svg PUBLIC "-//W3C//DTD SVG 20010904//EN"
 "http://www.w3.org/TR/2001/REC-SVG-20010904/DTD/svg10.dtd">
<svg version="1.0" xmlns="http://www.w3.org/2000/svg"
 width="1024.000000pt" height="1024.000000pt" viewBox="-512 -512 1024 1024"
 preserveAspectRatio="xMidYMid meet">
  <path d="M400.538 246.848l-.586-.318-1.018.381-.639-.369-.544-.417-.866.049-1.448-.613-.321-.929-.275-.259-.422 1.678-2.259 1.527-.02 1.034-.162 1.188.319.833-.319 1.288.387.704-.892 4.932-.408.12-.271.472.211.497-.281.739h.62l.149-.558 3.64.555.414.248 4.159.598 1.941-12.738-1.109-.642z" transform="scale(64.58563250913319) translate(-396.1855010986328 -252.30044555664062)"></path>
</svg>
