<?xml version="1.0" standalone="no"?>
<!DOCTYPE svg PUBLIC "-//W3C//DTD SVG 20010904//EN"
 "http://www.w3.org/TR/2001/REC-SVG-20010904/DTD/svg10.dtd">
<svg version="1.0" xmlns="http://www.w3.org/2000/svg"
 width="1024.000000pt" height="1024.000000pt" viewBox="-512 -512 1024 1024"
 preserveAspectRatio="xMidYMid meet">
  <path d="M302.076 163.551l1.2.039.471-.095 1.009.8.635.644.447.484.877-.821.947.395-.333 1.418.372.781.822.208.373.483-.269.625-.559.794.026.449.328.506a3.275 3.275 0 01.762.14c.054.071.279.373.354.485s.49.613.49.613l-.215.96-1.6.267-.777.544s.553.668.642.78.648.733.648.733l.265.567-1.376.535-.814 1.265.044.962.774.458.147.9-1.279.744.623.524 1.108.124.574.123.162.935-.619.837-1.123.03.218.92.2 1.109-.37.47-1.7-.314-2.019.742-6.058-.735-2.139-11.9-.848-.109-.726-7.4-.872-2.65-.398-2.02 10.606 1.286-.316.737-.831.292z" transform="scale(41.26705976907027) translate(-301.2639617919922 -173.3070297241211)"></path>
</svg>
