<?xml version="1.0" standalone="no"?>
<!DOCTYPE svg PUBLIC "-//W3C//DTD SVG 20010904//EN"
 "http://www.w3.org/TR/2001/REC-SVG-20010904/DTD/svg10.dtd">
<svg version="1.0" xmlns="http://www.w3.org/2000/svg"
 width="1024.000000pt" height="1024.000000pt" viewBox="-512 -512 1024 1024"
 preserveAspectRatio="xMidYMid meet">
  <path d="M236.73 227.445l.777-1.038.033-1.008-.579-.66-.993-.747-.896-.872.116-1.035.509-1.061.522-1.487.687-.587 1.412-.691 1.739-1.105 1.395-1.31.86-1.229-1.162-.163-.71.5-.777.02-.377-.686.344-.739.122-.479.604-.044.69-.948-13.556-1.814-2.71.349-4.682-.056.671 2.86-.183 1.818-.593 2.532 1.087 1.389 1.522.533.726 1.067-.271 1.993-1.344 1.351.556 1.803 1.195 2.799 1.016 1.286 1.344.523 1.342.611 1.541-.416 1.729-1.601 1.004-1.43 1.18-.106.798.211 2.298.268 1.014-.601z" transform="scale(45.880159896191905) translate(-231.15250396728516 -220.69100952148438)"></path>
</svg>
