<?xml version="1.0" standalone="no"?>
<!DOCTYPE svg PUBLIC "-//W3C//DTD SVG 20010904//EN"
 "http://www.w3.org/TR/2001/REC-SVG-20010904/DTD/svg10.dtd">
<svg version="1.0" xmlns="http://www.w3.org/2000/svg"
 width="1024.000000pt" height="1024.000000pt" viewBox="-512 -512 1024 1024"
 preserveAspectRatio="xMidYMid meet">
  <path d="M317.815 353.903l1.492-.009v.815h1.731l1.631.427.444-.355 2.024.119 1.09-8.029-.149-1.021.719-2.842.594-4.418.323-2.576-1.502-5.437-.524-1.796-.646-1.511-2.462-5.762-2.781-3.825-3.115-.462-1.07 6.825-3.59-.326.042 2.963-.573 2.873-.921 2.098-.03 1.672-2.077 1.388.334 2.256 2.495 1.261.554 1.214.511 2.23.352 3.339.915 2.01-1.077 3.369.208 1.593 1.515 1.344 3.2 4.34.275-1.395.068-2.372z" transform="scale(25.315845701627847) translate(-318.08949279785156 -337.44549560546875)"></path>
</svg>
