<?xml version="1.0" standalone="no"?>
<!DOCTYPE svg PUBLIC "-//W3C//DTD SVG 20010904//EN"
 "http://www.w3.org/TR/2001/REC-SVG-20010904/DTD/svg10.dtd">
<svg version="1.0" xmlns="http://www.w3.org/2000/svg"
 width="1024.000000pt" height="1024.000000pt" viewBox="-512 -512 1024 1024"
 preserveAspectRatio="xMidYMid meet">
  <path d="M545.445 483.321l1.782-11.882 28.658 4.221 1.086 1.72.322 1.753 1.151 1.454.115 3.028 2.291 3.235 3.229.725 2.915 2.454 2.634 2.719.032 3.221 1.454 2.46-.323 2.873-.771 1.426 1.604 3.195.226 1.536-8.911 1.105-3.581 4.123-43.777-6.511 1.956-11.65 1.057-.14.723-4.383-5.087-.82.23-1.45 4.782.681.999-5.844 5.204.751z" transform="scale(17.771627411828884) translate(-563.0400085449219 -492.06304931640625)"></path>
</svg>
