<?xml version="1.0" standalone="no"?>
<!DOCTYPE svg PUBLIC "-//W3C//DTD SVG 20010904//EN"
 "http://www.w3.org/TR/2001/REC-SVG-20010904/DTD/svg10.dtd">
<svg version="1.0" xmlns="http://www.w3.org/2000/svg"
 width="1024.000000pt" height="1024.000000pt" viewBox="-512 -512 1024 1024"
 preserveAspectRatio="xMidYMid meet">
  <path d="M475.688 276.603l-1.021.001.001-.421.52-.352-.146-1.213 1.03-.193-.001-.568-1.12-.133.015-1.143-.068-.718 2.03-.146v-1.01h1.324l.005.995 3.108-.37.075-2.802 2.408.058-.273-1.832.271-2.426 7.21 6.016 8.051 2.278.637.707-.187 1.266-2.159 1.569h-1.093v1.04h-.949l-.238 2.446-2.847.072-2.307.768-2.597.015-1.26.632-4.249.196-.847.642-1.765-.25-1.414.658-3.165-.82 1.021-4.962z" data-id="289" transform="scale(40.83423732815073) translate(-487.2054901123047 -273.3575439453125)"></path>
</svg>
