<?xml version="1.0" standalone="no"?>
<!DOCTYPE svg PUBLIC "-//W3C//DTD SVG 20010904//EN"
 "http://www.w3.org/TR/2001/REC-SVG-20010904/DTD/svg10.dtd">
<svg version="1.0" xmlns="http://www.w3.org/2000/svg"
 width="1024.000000pt" height="1024.000000pt" viewBox="-512 -512 1024 1024"
 preserveAspectRatio="xMidYMid meet">
  <path fill-rule="evenodd" d="M213.133 307.602l-5.307-.479-4.26.315-4.727 2.139-3.372 2.735-2.766 3.619-1.824-1.201-4.388-.948-.923-2.722-6.272-1.406 1.293-3.903.645-3.972-1.003-3.359-5.129 1.582-2.591-2.321 2.209-10.678 4.288-1.315 31.884 4.808 3.488-.754 8.655 2.695.126 2.792 3.745 1.406 2.463-.047 3.328.998-3.096 1.229-2.433.889-1.787 1.512-4.081.303v-3.345l-4.507-1.636-3.107 5.541-.551 5.523z" transform="scale(17.013922192503202) translate(-202.6019744873047 -300.80946350097656)"></path>
</svg>
