<?xml version="1.0" standalone="no"?>
<!DOCTYPE svg PUBLIC "-//W3C//DTD SVG 20010904//EN"
 "http://www.w3.org/TR/2001/REC-SVG-20010904/DTD/svg10.dtd">
<svg version="1.0" xmlns="http://www.w3.org/2000/svg"
 width="1024.000000pt" height="1024.000000pt" viewBox="-512 -512 1024 1024"
 preserveAspectRatio="xMidYMid meet">
  <path d="M201.223 156.732l-.56 1.57-.54 1 .937 1.641.427 1.523-.7.981-2.676.22s-.233 1.093-.57 1.22-2.337.651-2.337.651l-1.171 1.383 1.013 1.641-.527 1.673-2.521 2.6.6.818 1.3.7.618 1.084 1.22 1.3-.917.489-.319 1.841.319 1.8 5.839.566.825 2.251-.832.942-.261 1.9 3.115 4.193 3.363 2.138 1.083-4.23 3.17 1.235.731 1.574 1.717 1.163 1.5 1.694.888 1.731 2.906.694.9-1.821-.7-4.911-3.4-2.744-2.823-4.442.749-.943-.564-2.708.783-1.932 2.976.227-1.238-1.878.533-4.629 1.146-1.459-1.5-1.085-1.6 1.623-1.1-.783.783-1.463v-2.3l-.968-1.808-2.1-.9.34-2.645-6.032-.842.343-2.016z" fill-rule="evenodd" transform="scale(25.608948439319768) translate(-205.8805160522461 -176.72500610351562)"></path>
</svg>
