<?xml version="1.0" standalone="no"?>
<!DOCTYPE svg PUBLIC "-//W3C//DTD SVG 20010904//EN"
 "http://www.w3.org/TR/2001/REC-SVG-20010904/DTD/svg10.dtd">
<svg version="1.0" xmlns="http://www.w3.org/2000/svg"
 width="1024.000000pt" height="1024.000000pt" viewBox="-512 -512 1024 1024"
 preserveAspectRatio="xMidYMid meet">
  <path d="M372.342 223.609l.9.135.219-1.215 1.128-1.259.504-1.453-.972-1.081-.285-.788-1.905.112-10.638-1.434-.535-.698-.761-.41-.794-.984-1.276 1.682.38.98-.69 3.231.397.409-1.716 1.491.448.466-.102 1.659 2.391.526 3.185.483 2.294.674 1.243-1.157 1.284-1.698.076-.342.754.105.311-.524 1.073-.3h.882l-.191.767.454.194-.243.286.514.429 1.671-.286z" transform="scale(54.48262469271312) translate(-365.69549560546875 -220.3344955444336)"></path>
</svg>
