<?xml version="1.0" standalone="no"?>
<!DOCTYPE svg PUBLIC "-//W3C//DTD SVG 20010904//EN"
 "http://www.w3.org/TR/2001/REC-SVG-20010904/DTD/svg10.dtd">
<svg version="1.0" xmlns="http://www.w3.org/2000/svg"
 width="1024.000000pt" height="1024.000000pt" viewBox="-512 -512 1024 1024"
 preserveAspectRatio="xMidYMid meet">
  <path d="M350.354 151.666l-.309.979a5.584 5.584 0 01.186.965c-.045.065-.42 1.1-.42 1.1v1.19l-.933.736 1.476.65.237 1.7.708-1.319 1.046.62.547-.972 1.227-.094a5.662 5.662 0 01.734-.485c.078 0 1.112-.118 1.112-.118l.292.519.479.433-.056 1.216-.721.732 1.047.449v.825l-2.509-.46-3.3 1.275-1.49 3.69-5.931 2-40.663-5.109.955-.867-.08-.8-1.845-.246 1.006-4.17.737-1.665.574-1.992-1.167-1.209.881-.745 1.7.17.56-.677-1.286-.883.628-1.535-.02-.954-1.319-.2.463-1.9.812-1.225 1.073 1.588 22.822 2.7 2.7.046-.207 1.5 9.823 1.323.1-.741.929-.413 6.963 1.734z" transform="scale(18.664681963565567) translate(-329.5744934082031 -155.29348754882812)"></path>
</svg>
