<?xml version="1.0" standalone="no"?>
<!DOCTYPE svg PUBLIC "-//W3C//DTD SVG 20010904//EN"
 "http://www.w3.org/TR/2001/REC-SVG-20010904/DTD/svg10.dtd">
<svg version="1.0" xmlns="http://www.w3.org/2000/svg"
 width="1024.000000pt" height="1024.000000pt" viewBox="-512 -512 1024 1024"
 preserveAspectRatio="xMidYMid meet">
  <path d="M489.589 334.779l-2.61-.582-5.709.282-7.185 6.228-2.99 3.4-3.534 1.426-3.273-.136-.38 1.316-1.355 1.733-1.037-.739-2.027.677.574 2.073.633 2.077-.235 1.358 1.055.45.4 2.567 1.3.839.957 1.436h2.082c.157 0 .947 1.24.947 1.24l1.438.119.644 1.08-.93 1.362 1.53.94.174 1.312 1.032.364.594 1.834h.9l1.139 2.046 1.089.713 1.567 1.339 2.3-6.958 7.244.977 14.451 2.167 2.162-13.022-2.208-1.581 3.04-3.557 2.467-9.3 5.252-5.273-1.229-1.282.655-2.649-4.07-.589-7.7 2.07z" transform="scale(19.845745291176403) translate(-485.2879638671875 -350.9994812011719)"></path>
</svg>
