<?xml version="1.0" standalone="no"?>
<!DOCTYPE svg PUBLIC "-//W3C//DTD SVG 20010904//EN"
 "http://www.w3.org/TR/2001/REC-SVG-20010904/DTD/svg10.dtd">
<svg version="1.0" xmlns="http://www.w3.org/2000/svg"
 width="1024.000000pt" height="1024.000000pt" viewBox="-512 -512 1024 1024"
 preserveAspectRatio="xMidYMid meet">
  <path d="M452.916 157.945h1.154l2.228-2.846-.751-2.61.593-2.514h1.542v-1.044l-1.7-1.802-.475-2.467.791-2.087h2.53l-1.423-2.894 2.372-.949 2.214-.332 1.541-4.175-1.937-2.514-1.818-.806-.554 2.324-1.66-.806-.988 1.66-1.74-.142-1.66 1.818.895-5.77-1.528.204-1.581 1.803-2.372 1.376-1.067-2.467-7.867-1.281-2.609 1.423-2.689 3.748 1.582 2.514 1.423.55v4.241l1.897.332 1.661 4.033 1.225 1.233 2.214.285-1.463 9.962 2.333 3.352 3.152.497.316-1.026 2.066.118.435-1.518 1.718-1.423z" transform="scale(31.83088506631428) translate(-448.9443817138672 -145.70899963378906)"></path>
</svg>
