<?xml version="1.0" standalone="no"?>
<!DOCTYPE svg PUBLIC "-//W3C//DTD SVG 20010904//EN"
 "http://www.w3.org/TR/2001/REC-SVG-20010904/DTD/svg10.dtd">
<svg version="1.0" xmlns="http://www.w3.org/2000/svg"
 width="1024.000000pt" height="1024.000000pt" viewBox="-512 -512 1024 1024"
 preserveAspectRatio="xMidYMid meet">
  <path d="M359.775 213.782l-1.848 2.434.38.98-.69 3.231.397.409-1.716 1.491.448.466-.102 1.659-.078.864-1.321.695-.307 1.715.885 2.224 1.798 1.376 2.728 1.656 2.727-1.622 1.056.383.296 1.465.237.721.135 1.267-.365-.02-.891-.367-.702-.903-.651-.077-.539.98-.986.103-1.571 1.011-.361-1.121-1.02 1.5.829.824.823.18-.637.739-1.667-.533-.528-1.922-1.726-.763-.733-.895-.897.84-1.85-.664-2.492 3.21-1.182-.688-.782-1.214.512-.763.363-.639-.131-.717-1.018.215-.435-.447-1.08-.109.355-1.228.075-1.067.415-.407-.082-.453-.576-.931-.371-1.083 1.722.161.199-.93-.355-.74-1.378-.116-1.296.26-.383-.201-.248-1.262-.057-1.302-.251-.499-.289-1.221-.943-.497-1.023-.826.379-1.526.978-.967-.267-.991-.296-.902 1.46-.456.688-.791-.805-.92 9.367 1.398.927-4.698 6.747 3.021z" transform="scale(37.53117948104199) translate(-352.69850158691406 -224.40299224853516)"></path>
</svg>
