<?xml version="1.0" standalone="no"?>
<!DOCTYPE svg PUBLIC "-//W3C//DTD SVG 20010904//EN"
 "http://www.w3.org/TR/2001/REC-SVG-20010904/DTD/svg10.dtd">
<svg version="1.0" xmlns="http://www.w3.org/2000/svg"
 width="1024.000000pt" height="1024.000000pt" viewBox="-512 -512 1024 1024"
 preserveAspectRatio="xMidYMid meet">
  <path d="M307.319 310.258v-.627l1.42-.036 1.019-1.21h1.673l1.631-1.085 1.364-.54.516 1.398.974-.858-.225-1.435.367-3.302.412-2.381.439-3.536-1.149-.223-.496-.707h-2.765l-.504-.21-.948-1.083-.663.423.277.814-1.582-.475-1.028-.957-.32-1.027-.187-.899-.916.274-.1.563-1.007.434-.799-1.469-2.277 1.022 3.773 3.639-.42.553.42.594-2.406 2.219-.386-.391.148 1.316-1.051.569v.89l2.815 4.044-.13 1.368-1.135.573.183 1.949.531 1.485 2.532-1.676z" transform="scale(51.63880693946207) translate(-309.67701721191406 -302.0189666748047)"></path>
</svg>
