<?xml version="1.0" standalone="no"?>
<!DOCTYPE svg PUBLIC "-//W3C//DTD SVG 20010904//EN"
 "http://www.w3.org/TR/2001/REC-SVG-20010904/DTD/svg10.dtd">
<svg version="1.0" xmlns="http://www.w3.org/2000/svg"
 width="1024.000000pt" height="1024.000000pt" viewBox="-512 -512 1024 1024"
 preserveAspectRatio="xMidYMid meet">
  <path d="M276.225 217.156l.053-.369-10.676-1.447.028 1.28.269 1.78-1.136.323-2.626-.429-1.944.148-1.209-.151-.774-.109-.536-.501-.483.404.611.782.127 1.032-1.008-.146-.198.594.491.463-.14.937-1.395.375.343 1.462.167 1.087-.037.633-.956.641 24.034 3.074.996-1.223.199-.908-.56-.194-1.231.012-.081-.914.842-.444.709-.891.001-1.729.32-2.211v-1.794l-.857-.676-1.098-.073-.766.316-.318-.842-1.161-.292z" transform="scale(40.58810750133663) translate(-267.8105773925781 -222.17949676513672)"></path>
</svg>
