<?xml version="1.0" standalone="no"?>
<!DOCTYPE svg PUBLIC "-//W3C//DTD SVG 20010904//EN"
 "http://www.w3.org/TR/2001/REC-SVG-20010904/DTD/svg10.dtd">
<svg version="1.0" xmlns="http://www.w3.org/2000/svg"
 width="1024.000000pt" height="1024.000000pt" viewBox="-512 -512 1024 1024"
 preserveAspectRatio="xMidYMid meet">
  <path d="M400.901 536.845l.842-.969 2.901 2.392.547 2.095 8.486 2.899 5.965 5.456 3.032 3.482 7.585 1.81 3.436-14.261 3.213-6.142 1.247-4.589.091-5.172-.272-3.637-6.74-2.206.661-3.542-8.516-1.123-.357 2.183-3.057-.432.382-2.329-4.518-.671-3.471 2.521-1.246.241-.599 1.487-3.255-1.06-.534 1.921-.474-1.28-2.229-.454-.56 3.185-2.642 9.214-3.805 6.348 3.887 2.633z" transform="scale(24.426886263638668) translate(-417.6300354003906 -533.0494384765625)"></path>
</svg>
