<?xml version="1.0" standalone="no"?>
<!DOCTYPE svg PUBLIC "-//W3C//DTD SVG 20010904//EN"
 "http://www.w3.org/TR/2001/REC-SVG-20010904/DTD/svg10.dtd">
<svg version="1.0" xmlns="http://www.w3.org/2000/svg"
 width="1024.000000pt" height="1024.000000pt" viewBox="-512 -512 1024 1024"
 preserveAspectRatio="xMidYMid meet">
  <path d="M370.434 194.451l-.255 1.794 1.213-.574 3.377.507 1.685-11.056 9.554 1.313.042-1.038-.946-1.107-1.933-.372-11.204-1.486.275-2.985-.275-.036.207-2.909-3.531-.461-2.516.753-.647 1.392-1.158 1.652-.078.547-1.384.058-.595.868-2.119-.157 1.628 1.472-.256 1.612-1.781 1.102v2.137l1.015.873-1.489 4.661 3.51.381 6.027.679 1.634.38z" transform="scale(38.22742942815673) translate(-372.6564636230469 -186.14302825927734)"></path>
</svg>
