<?xml version="1.0" standalone="no"?>
<!DOCTYPE svg PUBLIC "-//W3C//DTD SVG 20010904//EN"
 "http://www.w3.org/TR/2001/REC-SVG-20010904/DTD/svg10.dtd">
<svg version="1.0" xmlns="http://www.w3.org/2000/svg"
 width="1024.000000pt" height="1024.000000pt" viewBox="-512 -512 1024 1024"
 preserveAspectRatio="xMidYMid meet">
  <path fill-rule="evenodd" d="M192.701 315.931l.006 5.946-1.707 3.134-2.174 1.911v2.325l-3.807 1.001-4.146-.633-5.308.888-1.185-3.729-4.993-8.056-2.799-.384-2.609-4.652.261-1.873-1.743-2.899-1.338 1.03-4.811 1.225-1.713-5.029 12.998-1.264 3.872-2.888 1.004-4.303 2.591 2.321 5.129-1.582 1.003 3.359-.645 3.972-1.293 3.903 6.272 1.406.923 2.722 4.388.948 1.824 1.201z" transform="scale(26.896423969524083) translate(-173.67101287841797 -314.09205627441406)"></path>
</svg>
