<?xml version="1.0" standalone="no"?>
<!DOCTYPE svg PUBLIC "-//W3C//DTD SVG 20010904//EN"
 "http://www.w3.org/TR/2001/REC-SVG-20010904/DTD/svg10.dtd">
<svg version="1.0" xmlns="http://www.w3.org/2000/svg"
 width="1024.000000pt" height="1024.000000pt" viewBox="-512 -512 1024 1024"
 preserveAspectRatio="xMidYMid meet">
  <path d="M552.076 182.756l-20.369-2.127.033 1.358-6.858.7.174-1.31-2.8-2.629-3.565 1.315-.839 5.253 1.563 2.566-.933 3.538-3 1.887 1.718 1.011-2.482 3.582s1.319 3.571 1.388 4.07l.983 7.067 3.148 1.065-1.674 3.559.765.679-1.12 3.093 3.808-.051-1.451 3.148.174 2.44 2.627.36-1.79 2 4.459 1.832.737-2.55 2.315-.009 1.118-3.49 2.885 1.138 1.192-5.7 12.267 2.16 4.437-27.939z" transform="scale(21.150899456358157) translate(-533.3970336914062 -202.95500946044922)"></path>
</svg>
