<?xml version="1.0" standalone="no"?>
<!DOCTYPE svg PUBLIC "-//W3C//DTD SVG 20010904//EN"
 "http://www.w3.org/TR/2001/REC-SVG-20010904/DTD/svg10.dtd">
<svg version="1.0" xmlns="http://www.w3.org/2000/svg"
 width="1024.000000pt" height="1024.000000pt" viewBox="-512 -512 1024 1024"
 preserveAspectRatio="xMidYMid meet">
  <path d="M374.07 588.163l10.426-2.022 4.079 6.65 6.865-8.924.688-2.581 2.758-2.614 1.359-1.275 8.121-4.755-17.888-27.481-1.127.552-1.125-3.761-1.869 1.124-1.929.345-1.358-.875-2.132 1.084-1.343 2.46-1.245 3.11-1.747.482-1.984 1.618-.911 3.027-2.474 2.294-1.424 5.348-2.128 3.973-4.622 7.204.631 2.592-.081 2.425.888 2.791-.06 3.889 1.41.621 1.265 1.803 6.957.896z" transform="scale(20.141997029823028) translate(-385.71299743652344 -567.3715515136719)"></path>
</svg>
