<?xml version="1.0" standalone="no"?>
<!DOCTYPE svg PUBLIC "-//W3C//DTD SVG 20010904//EN"
 "http://www.w3.org/TR/2001/REC-SVG-20010904/DTD/svg10.dtd">
<svg version="1.0" xmlns="http://www.w3.org/2000/svg"
 width="1024.000000pt" height="1024.000000pt" viewBox="-512 -512 1024 1024"
 preserveAspectRatio="xMidYMid meet">
  <path fill-rule="evenodd" d="M206.166 249.153l1.002-.875 1.113-.487 1.014.937-.43 1.438 1.008 2.599.85 2.24-.871 1.66-1.151.427-.73 1.455-1.444 1.101v1.954l-1.349 2.249-12.04-1.282-.745-8.607-1.231-2.044-2.983-1.029-6.463-1.138-1.987-1.85-.977-2.953.233-3.451 1.519-4.055 3.959-1.854 12.374 1.39 1.507 1.874 1.626.83 1.799.688 1.541-.261 1.088-.095.61 2.134-.344 2.266-1.512 1.352-1.008 2.17-.237 1.922 1.216.747 3.043-1.452z" transform="scale(32.02903327572687) translate(-194.7375259399414 -249.71949768066406)"></path>
</svg>
