<?xml version="1.0" standalone="no"?>
<!DOCTYPE svg PUBLIC "-//W3C//DTD SVG 20010904//EN"
 "http://www.w3.org/TR/2001/REC-SVG-20010904/DTD/svg10.dtd">
<svg version="1.0" xmlns="http://www.w3.org/2000/svg"
 width="1024.000000pt" height="1024.000000pt" viewBox="-512 -512 1024 1024"
 preserveAspectRatio="xMidYMid meet">
  <path d="M466.043 135.079l3.34.356.138-1.8s.87-1.565.89-1.636.652-1.9.652-1.9l2.669-1.352-2.056-1.115-1.463.4-1.522-2.965-1.581-.143 1.028-1.755-.455-1.731 1.918-1.4.573-2.372s1.739-.877 1.818-1 1.522-2.514 1.522-2.514l-3.34.356.336-1.508 3.459-1.02-2.115-1.044-3.578-.261-.476 1.725-2.214.26v1.3l-2.807-.379-.474-1.115-3.024 2.182-2.313.047-1.542 2.254-3.1-.973-1.6-2.3.729-3.012s5.141.64 5.22.569 1.425-2.833 1.425-2.833-1.305-2.609-1.364-2.609-2.145-.19-2.145-.19l-.518-1.9-5.263-1.068-1.3-1.542-4.909 2.349-1.147-.878-3.2 1.755s.672 1.9.712 1.969-2.135 1.945-2.135 1.945-2.29 2.419-2.3 2.49.74 2.871.74 2.871l-1.68 4.672.77.973 2.254.047-.158 1 2.174.19-.455 5.052 2.016.309-.533 3.8 7.867 1.281 1.067 2.467 2.368-1.383 1.581-1.8 1.528-.2-.895 5.77 1.66-1.818 1.74.142.988-1.66 1.66.806.554-2.324 1.818.806 1.937 2.514z" transform="scale(25.36035056903982) translate(-453.7800598144531 -118.43050003051758)"></path>
</svg>
