<?xml version="1.0" standalone="no"?>
<!DOCTYPE svg PUBLIC "-//W3C//DTD SVG 20010904//EN"
 "http://www.w3.org/TR/2001/REC-SVG-20010904/DTD/svg10.dtd">
<svg version="1.0" xmlns="http://www.w3.org/2000/svg"
 width="1024.000000pt" height="1024.000000pt" viewBox="-512 -512 1024 1024"
 preserveAspectRatio="xMidYMid meet">
  <path d="M427.54 285.764l1.78.051.082-.531-.619-.228.558-4.44-.096-3.734 3.757.564.456-2.765.798.119.204-2.236 1.135.165.043.6 3.061.471-.162.979 2.127.239 1.378-1.522v1.837h2.9v1.298l.785-.618.128 1.736-.151 1.055.358.054-.003.419.267.039-.203 1.323-.739-.033-1.015 6.425-2.334-.337-5.36.019-1.042 7.577-4.236-.563.949-5.915-4.965-.821.159-1.227z" transform="scale(47.132439410156785) translate(-436.8535461425781 -283.4269714355469)"></path>
</svg>
