<?xml version="1.0" standalone="no"?>
<!DOCTYPE svg PUBLIC "-//W3C//DTD SVG 20010904//EN"
 "http://www.w3.org/TR/2001/REC-SVG-20010904/DTD/svg10.dtd">
<svg version="1.0" xmlns="http://www.w3.org/2000/svg"
 width="1024.000000pt" height="1024.000000pt" viewBox="-512 -512 1024 1024"
 preserveAspectRatio="xMidYMid meet">
  <path d="M306.783 144.871l5.612.735 10.469 1.117 6.741.844 2.699.046-.207 1.503 9.823 1.323.103-.741.929-.413 6.963 1.734.813-.522.921-1.59.321-1.219-.052-1.279-2.362-.642-2.331-.261-.616-.629 1.326-1.713-1.007-.842-1.023.468-.061-1.452.595-1.246-.095-1.745-40.914-5.428.596 2.245-.066 1.076-2.022-.012-.429 1.412.205 1.691-.102 1.553 1.751.384.347 2.015 1.073 1.588z" transform="scale(21.130394151023005) translate(-327.7394714355469 -141.96902465820312)"></path>
</svg>
