<?xml version="1.0" standalone="no"?>
<!DOCTYPE svg PUBLIC "-//W3C//DTD SVG 20010904//EN"
 "http://www.w3.org/TR/2001/REC-SVG-20010904/DTD/svg10.dtd">
<svg version="1.0" xmlns="http://www.w3.org/2000/svg"
 width="1024.000000pt" height="1024.000000pt" viewBox="-512 -512 1024 1024"
 preserveAspectRatio="xMidYMid meet">
  <path d="M580.391 353.808l2.151-2.286 2.636-1.887-.752-3.408 1.387-6.5 1.819.149-2.888-5.017 3.284-1.6.492-2.269-6.391.729-.751 3.746-1.413 1.556-4.74-1.109-2.916 1.08-1.471-.832-3.866 1.224-.378 2.399 2.367 1.464 2.58 2.11-1.208 1.675-3.739.287-3.022.486.557 2.121 1.956 1.457 1.587 4.339 2.498 2.444 4.757 1.953 5.793-.024-.329-4.287z" transform="scale(37.74571634269258) translate(-576.0459594726562 -344.554443359375)"></path>
</svg>
