<?xml version="1.0" standalone="no"?>
<!DOCTYPE svg PUBLIC "-//W3C//DTD SVG 20010904//EN"
 "http://www.w3.org/TR/2001/REC-SVG-20010904/DTD/svg10.dtd">
<svg version="1.0" xmlns="http://www.w3.org/2000/svg"
 width="1024.000000pt" height="1024.000000pt" viewBox="-512 -512 1024 1024"
 preserveAspectRatio="xMidYMid meet">
  <path d="M544.041 377.653l2.29-1.946 1.698-4.316-2.587-.939-2.904.397-.577-1.806 1.079-4.637.993-9.592.838-4.899 1.334-4.202-4.376.27-1.581 1.928-1.973-2.766-7.564-6.391-3.853-3.437-6.401-.496-.656-3.831-4.66.53-4.056 3.466-5.252 5.273-2.467 9.3-3.04 3.557 2.208 1.581-2.162 13.022 9.421 1.375 1.662 2.413.709 2.715 3.864 2.801 1.339 5.166 6.727 1.599 10.535 1.591 6.329-.401 3.083-7.325z" transform="scale(18.827344354057697) translate(-524.1774444580078 -358.18450927734375)"></path>
</svg>
