<?xml version="1.0" standalone="no"?>
<!DOCTYPE svg PUBLIC "-//W3C//DTD SVG 20010904//EN"
 "http://www.w3.org/TR/2001/REC-SVG-20010904/DTD/svg10.dtd">
<svg version="1.0" xmlns="http://www.w3.org/2000/svg"
 width="1024.000000pt" height="1024.000000pt" viewBox="-512 -512 1024 1024"
 preserveAspectRatio="xMidYMid meet">
  <path d="M526.519 317.151l1.305-2.242-.308-2.742 1.693-1.327-.018-3.397-1.763-2.115-4.782-1.165-.322 2.26-3.022-1.269-2.477 2.189.27 2.253-3.557.206-2.311-1.215-1.306-2.566-3.242-1.109-3.622.427-2.871-1.251-2.642 1.763-3.411-.101.151 2.914 1.845 1.955-1.575 5.052 1.067 3.645-.624 4.915 1.756 4.655 1.992 3.65 7.696-2.07 4.07.589-.655 2.649 1.229 1.282 4.056-3.466 4.66-.53 4.026-5.903v-2.273l.918-.941 1.77.966.174-2.126-.17-3.562z" transform="scale(29.193760059858878) translate(-511.6709899902344 -319.53692626953125)"></path>
</svg>
