<?xml version="1.0" standalone="no"?>
<!DOCTYPE svg PUBLIC "-//W3C//DTD SVG 20010904//EN"
 "http://www.w3.org/TR/2001/REC-SVG-20010904/DTD/svg10.dtd">
<svg version="1.0" xmlns="http://www.w3.org/2000/svg"
 width="1024.000000pt" height="1024.000000pt" viewBox="-512 -512 1024 1024"
 preserveAspectRatio="xMidYMid meet">
  <path d="M312.255 242.655l4.289-2.172 2.136-.782.176-.492-.066-.425-.398-.425.534-.64.472.386.668.287.621.088.58-.221.747-.563.578-.714.412-.493.497-.153.464.196.473.304.304.696.304.516.854.567 1.248.738.466 1.41-.467 1.107-1.394.979-.884 1.344-1.815.562-.384 1.356-.664.427-.83-.025-3.597.382-1.079-.782-1.024-.493-3.578-.475.357-2.49z" transform="scale(65.15638768658383) translate(-319.75587463378906 -241.61550903320312)"></path>
</svg>
